<svg width="22" height="21" viewBox="0 0 22 21" fill="none" xmlns="http://www.w3.org/2000/svg">
<path d="M0.630045 15H13.5128C13.5956 15.0001 13.6775 14.9845 13.754 14.9543C13.8305 14.9241 13.8999 14.8798 13.9585 14.824C14.017 14.7681 14.0634 14.7018 14.095 14.6288C14.1267 14.5558 14.1429 14.4776 14.1429 14.3986V12.6014C14.1429 12.5224 14.1267 12.4442 14.095 12.3712C14.0634 12.2982 14.017 12.2319 13.9585 12.176C13.8999 12.1202 13.8305 12.0759 13.754 12.0457C13.6775 12.0154 13.5956 11.9999 13.5128 12H0.630045C0.547288 11.9999 0.46533 12.0154 0.388861 12.0457C0.312391 12.0759 0.24291 12.1202 0.184392 12.176C0.125874 12.2319 0.0794678 12.2982 0.047828 12.3712C0.0161881 12.4442 -6.43864e-05 12.5224 1.91693e-07 12.6014V14.3986C-6.43864e-05 14.4776 0.0161881 14.5558 0.047828 14.6288C0.0794678 14.7018 0.125874 14.7681 0.184392 14.824C0.24291 14.8798 0.312391 14.9241 0.388861 14.9543C0.46533 14.9845 0.547288 15.0001 0.630045 15ZM0.630045 3H13.5128C13.5956 3.00006 13.6775 2.98455 13.754 2.95435C13.8305 2.92414 13.8999 2.87985 13.9585 2.82399C14.017 2.76813 14.0634 2.70181 14.095 2.62881C14.1267 2.55582 14.1429 2.47759 14.1429 2.39859V0.601406C14.1429 0.522411 14.1267 0.444179 14.095 0.371185C14.0634 0.298192 14.017 0.231868 13.9585 0.17601C13.8999 0.120152 13.8305 0.0758555 13.754 0.0456539C13.6775 0.0154522 13.5956 -6.14597e-05 13.5128 1.8298e-07H0.630045C0.547288 -6.14597e-05 0.46533 0.0154522 0.388861 0.0456539C0.312391 0.0758555 0.24291 0.120152 0.184392 0.17601C0.125874 0.231868 0.0794678 0.298192 0.047828 0.371185C0.0161881 0.444179 -6.43864e-05 0.522411 1.91693e-07 0.601406V2.39859C-6.43864e-05 2.47759 0.0161881 2.55582 0.047828 2.62881C0.0794678 2.70181 0.125874 2.76813 0.184392 2.82399C0.24291 2.87985 0.312391 2.92414 0.388861 2.95435C0.46533 2.98455 0.547288 3.00006 0.630045 3ZM21.2143 6H0.785714C0.57733 6 0.377481 6.07902 0.230131 6.21967C0.0827806 6.36032 1.91693e-07 6.55109 1.91693e-07 6.75V8.25C1.91693e-07 8.44891 0.0827806 8.63968 0.230131 8.78033C0.377481 8.92098 0.57733 9 0.785714 9H21.2143C21.4227 9 21.6225 8.92098 21.7699 8.78033C21.9172 8.63968 22 8.44891 22 8.25V6.75C22 6.55109 21.9172 6.36032 21.7699 6.21967C21.6225 6.07902 21.4227 6 21.2143 6ZM21.2143 18H0.785714C0.57733 18 0.377481 18.079 0.230131 18.2197C0.0827806 18.3603 1.91693e-07 18.5511 1.91693e-07 18.75V20.25C1.91693e-07 20.4489 0.0827806 20.6397 0.230131 20.7803C0.377481 20.921 0.57733 21 0.785714 21H21.2143C21.4227 21 21.6225 20.921 21.7699 20.7803C21.9172 20.6397 22 20.4489 22 20.25V18.75C22 18.5511 21.9172 18.3603 21.7699 18.2197C21.6225 18.079 21.4227 18 21.2143 18Z" fill="black"/>
</svg>
