<svg width="20" height="20" viewBox="0 0 20 20" fill="none" xmlns="http://www.w3.org/2000/svg">
<path d="M5.56672 1.58476L4.13241 0.150452C1.72518 1.98596 0.140422 4.81446 0 8.0241H2.00602C2.15648 5.36611 3.52057 3.03913 5.56672 1.58476ZM17.994 8.0241H20.0001C19.8496 4.81446 18.2648 1.98596 15.8677 0.150452L14.4434 1.58476C16.4695 3.03913 17.8436 5.36611 17.994 8.0241ZM16.0181 8.5256C16.0181 5.44636 14.3732 2.86861 11.5045 2.18657V1.50452C11.5045 0.672018 10.8325 0 10 0C9.16753 0 8.49551 0.672018 8.49551 1.50452V2.18657C5.61687 2.86861 3.98196 5.43632 3.98196 8.5256V13.5407L1.97593 15.5467V16.5497H18.0241V15.5467L16.0181 13.5407V8.5256ZM10 19.5587C10.1405 19.5587 10.2708 19.5487 10.4012 19.5186C11.0532 19.3782 11.5848 18.9369 11.8456 18.3351C11.9459 18.0943 11.996 17.8336 11.996 17.5527H7.98398C7.99401 18.656 8.88669 19.5587 10 19.5587Z" fill="white"/>
</svg>
