<svg width="22" height="21" viewBox="0 0 22 21" fill="none" xmlns="http://www.w3.org/2000/svg">
<path d="M21.3125 16.5H6.875V15.75C6.875 15.3375 6.56563 15 6.1875 15H4.8125C4.43437 15 4.125 15.3375 4.125 15.75V16.5H0.6875C0.309375 16.5 0 16.8375 0 17.25V18.75C0 19.1625 0.309375 19.5 0.6875 19.5H4.125V20.25C4.125 20.6625 4.43437 21 4.8125 21H6.1875C6.56563 21 6.875 20.6625 6.875 20.25V19.5H21.3125C21.6906 19.5 22 19.1625 22 18.75V17.25C22 16.8375 21.6906 16.5 21.3125 16.5ZM21.3125 9H17.875V8.25C17.875 7.8375 17.5656 7.5 17.1875 7.5H15.8125C15.4344 7.5 15.125 7.8375 15.125 8.25V9H0.6875C0.309375 9 0 9.3375 0 9.75V11.25C0 11.6625 0.309375 12 0.6875 12H15.125V12.75C15.125 13.1625 15.4344 13.5 15.8125 13.5H17.1875C17.5656 13.5 17.875 13.1625 17.875 12.75V12H21.3125C21.6906 12 22 11.6625 22 11.25V9.75C22 9.3375 21.6906 9 21.3125 9ZM21.3125 1.5H12.375V0.75C12.375 0.3375 12.0656 0 11.6875 0H10.3125C9.93437 0 9.625 0.3375 9.625 0.75V1.5H0.6875C0.309375 1.5 0 1.8375 0 2.25V3.75C0 4.1625 0.309375 4.5 0.6875 4.5H9.625V5.25C9.625 5.6625 9.93437 6 10.3125 6H11.6875C12.0656 6 12.375 5.6625 12.375 5.25V4.5H21.3125C21.6906 4.5 22 4.1625 22 3.75V2.25C22 1.8375 21.6906 1.5 21.3125 1.5Z" fill="black" fill-opacity="0.44"/>
</svg>
