<svg width="20" height="22" viewBox="0 0 20 22" fill="none" xmlns="http://www.w3.org/2000/svg">
<path d="M19.728 19.0204L15.8332 14.7368C15.6574 14.5435 15.4191 14.4361 15.1691 14.4361H14.5323C15.6105 12.9194 16.2512 11.0118 16.2512 8.93663C16.2512 4 12.6142 0 8.12559 0C3.63698 0 0 4 0 8.93663C0 13.8733 3.63698 17.8733 8.12559 17.8733C10.0125 17.8733 11.747 17.1686 13.126 15.9828V16.6831C13.126 16.9581 13.2236 17.2202 13.3994 17.4135L17.2942 21.6971C17.6614 22.101 18.2552 22.101 18.6185 21.6971L19.7241 20.4812C20.0913 20.0773 20.0913 19.4243 19.728 19.0204ZM8.12559 14.4361C5.36367 14.4361 3.12523 11.9785 3.12523 8.93663C3.12523 5.89903 5.35977 3.43716 8.12559 3.43716C10.8875 3.43716 13.126 5.89474 13.126 8.93663C13.126 11.9742 10.8914 14.4361 8.12559 14.4361Z" fill="black" fill-opacity="0.44"/>
</svg>
