<svg width="128" height="91" viewBox="0 0 128 91" fill="none" xmlns="http://www.w3.org/2000/svg">
<g clip-path="url(#clip0_7_14)">
<path opacity="0.1" d="M42.5547 90.9489C48.7882 90.9489 53.8415 90.1343 53.8415 89.1294C53.8415 88.1246 48.7882 87.31 42.5547 87.31C36.3212 87.31 31.2679 88.1246 31.2679 89.1294C31.2679 90.1343 36.3212 90.9489 42.5547 90.9489Z" fill="#0A7342"/>
<path opacity="0.1" d="M103.908 91C111.686 91 117.992 90.1854 117.992 89.1806C117.992 88.1757 111.686 87.3611 103.908 87.3611C96.1294 87.3611 89.8237 88.1757 89.8237 89.1806C89.8237 90.1854 96.1294 91 103.908 91Z" fill="#0A7342"/>
<path opacity="0.1" d="M1.60312 39.3185H13.359V55.4005H2.46375C2.4348 55.5656 2.407 55.7319 2.37688 55.8981H13.359V68.8679C13.3393 68.8621 13.3219 68.8551 13.3034 68.8481C12.993 68.7249 12.6848 68.5947 12.3767 68.4552L12.1798 68.3657C11.8709 68.2192 11.562 68.0642 11.2532 67.9006C11.1454 67.8437 11.0377 67.7844 10.9311 67.7239C9.21633 66.7598 7.65851 65.5382 6.31172 64.1013C6.27234 64.063 6.23527 64.0223 6.19589 63.9851C6.00824 63.7804 5.82407 63.5735 5.64568 63.3619L5.44877 63.1294C5.23795 62.8701 5.03409 62.6039 4.83601 62.3342C4.80705 62.2947 4.77925 62.2551 4.74914 62.2179C3.94357 61.0969 3.2747 59.883 2.75681 58.6023C2.74059 58.5639 2.72669 58.5221 2.71164 58.486C2.55256 58.0753 2.41163 57.6606 2.28885 57.2421C2.23556 57.0665 2.1846 56.8933 2.14058 56.7108C2.12436 56.6573 2.11046 56.605 2.09772 56.5527C1.43979 53.9752 1.36218 51.2978 1.36218 48.639C1.36218 48.3286 1.36218 48.017 1.36218 47.7089C1.36218 46.6335 1.37492 45.5512 1.39346 44.4699C1.39346 44.1898 1.40504 43.9107 1.41083 43.6294C1.42705 42.9156 1.45022 42.2017 1.48033 41.4879C1.48728 41.2891 1.49655 41.0915 1.50697 40.8938C1.50697 40.7799 1.51277 40.666 1.52435 40.552C1.55215 40.1382 1.57532 39.7278 1.60312 39.3185Z" fill="#0A7342"/>
<path opacity="0.1" d="M13.3589 21.4124H6.91052C7.95875 19.7657 9.10406 18.1834 10.3403 16.6738C11.2983 15.4926 12.3095 14.3416 13.3589 13.2325V21.4124Z" fill="#0A7342"/>
<path opacity="0.1" d="M13.3591 21.91V38.821H1.64026C1.64026 38.7721 1.64837 38.7221 1.65184 38.6733C1.66227 38.5396 1.67269 38.4059 1.68427 38.2734C1.69702 38.1176 1.71092 37.9607 1.72597 37.8084C1.74103 37.6561 1.75725 37.47 1.77462 37.3015C1.792 37.1329 1.80822 36.962 1.82791 36.7934C1.8476 36.6248 1.86497 36.4563 1.88582 36.2889C1.90667 36.1214 1.92521 35.9517 1.94722 35.7843C1.96459 35.6448 1.98312 35.5064 2.00166 35.3669C2.0283 35.1705 2.0561 34.9728 2.08622 34.7775C2.08622 34.7484 2.09432 34.7182 2.09896 34.6903C2.31037 33.2605 2.59844 31.8432 2.96191 30.4446C3.34238 28.9774 3.82821 27.5397 4.41561 26.143C5.03991 24.6818 5.77088 23.2689 6.60254 21.9158L13.3591 21.91Z" fill="#0A7342"/>
<path opacity="0.1" d="M16.1656 39.3174V55.4005H41.2748V39.3174H16.1656ZM16.1656 55.897V69.7085C16.3093 69.7387 16.4518 69.7678 16.5931 69.7922C16.7854 69.8294 16.9765 69.8631 17.1722 69.8921C17.2093 69.898 17.2475 69.9038 17.2881 69.9073C17.3645 69.9201 17.4433 69.9305 17.5197 69.941C17.7132 69.9677 17.9055 69.9898 18.0989 70.0072C18.1904 70.0165 18.2831 70.0247 18.3757 70.0317L18.5993 70.0491C18.7209 70.0584 18.8414 70.0654 18.9607 70.0689C19.0348 70.0689 19.109 70.0758 19.1854 70.0782C19.2433 70.0782 19.3012 70.0782 19.3615 70.0782C19.4217 70.0782 19.5074 70.0782 19.5804 70.0782C19.68 70.0782 19.7796 70.0782 19.8781 70.0782H20.0113C20.1109 70.0782 20.2105 70.0782 20.309 70.0689H20.3159C20.3843 70.0689 20.4538 70.0689 20.5233 70.0596C20.5426 70.0607 20.5619 70.0607 20.5812 70.0596C20.6391 70.0596 20.697 70.0596 20.7526 70.0514H20.7932L21.1812 70.0212C21.3086 70.0096 21.4372 69.9945 21.5669 69.9805L21.831 69.9491C22.9055 69.798 23.968 69.5711 25.0107 69.2702C27.3528 68.6145 29.644 67.6972 31.985 67.0252C35.0117 66.1591 38.3558 65.7336 41.2805 66.7927V55.897H16.1656ZM41.2748 21.4124V0.00115359C38.5257 -0.0287392 35.7842 0.293971 33.1166 0.961447C26.7586 2.56465 21.0538 6.04193 16.1656 10.483V21.4113H17.4259V21.9077H16.1656V38.821H41.2748V21.9089H22.6002V21.4124H41.2748ZM73.5261 14.18C71.9531 14.1242 70.3894 13.6243 68.975 12.8523C66.2703 11.3759 64.1101 9.09604 61.6961 7.17196C56.6805 3.16454 50.4603 0.746369 44.0791 0.146476V21.4124H79.9236L80.0128 21.3183L73.5261 14.18ZM76.7914 13.5987L80.2537 17.412V12.5989C79.0942 12.7431 78.0783 13.086 76.7961 13.5941L76.7914 13.5987ZM80.2537 73.1381V55.897H72.8763C72.8566 55.8237 72.8369 55.7493 72.8137 55.6749C72.8357 55.7493 72.8543 55.8237 72.8751 55.897H44.0837V68.3657C44.3571 68.5691 44.627 68.783 44.8945 69.0005C45.183 69.233 45.4679 69.4783 45.754 69.7189L46.0424 69.9584C46.1803 70.0747 46.3193 70.1909 46.4594 70.3002C46.7374 70.5265 47.0181 70.7497 47.3015 70.9699C47.4417 71.0861 47.5853 71.1908 47.7278 71.3C49.9897 73.0357 52.3757 74.6021 54.8666 75.9864C55.4249 76.2964 55.9882 76.5991 56.5566 76.8944C56.9354 77.0885 57.3165 77.2815 57.6987 77.4687C58.2732 77.75 58.8524 78.0213 59.4362 78.2825C64.8185 80.7075 70.51 82.3715 76.3478 83.227C77.6444 83.4192 78.9459 83.5703 80.2525 83.6804V73.1369H80.3684L80.2537 73.1381ZM44.0837 21.9089V38.821H80.2583V21.9089H44.0837ZM44.0837 39.3174V55.4005H80.2583V39.3174H44.0837ZM83.0661 12.578V17.9468L87.4851 13.0802C86.021 12.843 84.548 12.6737 83.0661 12.5722V12.578ZM83.0661 39.3232V55.4005H118.25V39.3174L83.0661 39.3232ZM118.122 74.4146L118.246 55.897H83.0661V83.8652C85.3324 83.9608 87.6021 83.9336 89.8655 83.7838H89.9049C90.986 83.7156 92.0621 83.6164 93.1332 83.4862H93.1575C98.8716 82.8188 104.459 81.3224 109.745 79.044L118.122 74.4146ZM125.035 41.9657C124.903 41.653 124.765 41.3426 124.625 41.0357C124.363 40.4544 124.086 39.8894 123.801 39.3244H121.056V55.4005H127.997C127.993 50.8479 126.845 46.1975 125.038 41.9599L125.035 41.9657ZM121.056 55.9028V71.8302C123.011 69.9491 124.663 67.7972 125.852 65.3372C127.283 62.3749 127.937 59.1673 127.991 55.9005L121.056 55.9028ZM121.056 34.6368V38.8221H123.544C122.791 37.3814 121.962 35.9823 121.059 34.631L121.056 34.6368ZM97.1943 15.7332C97.0112 15.6635 96.8282 15.5926 96.6441 15.524C94.7016 14.804 92.7167 14.2053 90.7007 13.7313L83.9383 21.1799L83.8086 21.3183L83.8955 21.4136H107.963C104.611 19.0978 100.998 17.1891 97.1977 15.7274L97.1943 15.7332ZM108.669 21.9147H83.5596L83.0661 22.3681V38.821H87.3913H87.3983H118.255V30.8515C115.464 27.4632 112.242 24.4567 108.672 21.9089L108.669 21.9147Z" fill="#0A7342"/>
<path opacity="0.1" d="M13.3591 30.4399V38.821H1.64026C1.64026 38.7721 1.64837 38.7221 1.65184 38.6733C1.66227 38.5396 1.67269 38.4059 1.68427 38.2734C1.69702 38.1176 1.71092 37.9606 1.72597 37.8083C1.74103 37.656 1.75725 37.47 1.77462 37.3015C1.792 37.1329 1.80822 36.962 1.82791 36.7934C1.8476 36.6248 1.86497 36.4563 1.88582 36.2888C1.90667 36.1214 1.92521 35.9517 1.94722 35.7843C1.96459 35.6448 1.98312 35.5064 2.00166 35.3669C2.0283 35.1704 2.0561 34.9728 2.08622 34.7775C2.08622 34.7484 2.09432 34.7182 2.09896 34.6903C2.31037 33.2605 2.59844 31.8432 2.96191 30.4445L13.3591 30.4399Z" fill="#0A7342"/>
<path opacity="0.1" d="M1.60312 39.3185H13.359V55.4005H2.46375C2.4348 55.5656 2.407 55.7319 2.37688 55.8981H13.359V68.8679C13.3393 68.8621 13.3219 68.8551 13.3034 68.8481C12.993 68.7249 12.6848 68.5947 12.3767 68.4552L12.1798 68.3657C11.8709 68.2192 11.562 68.0642 11.2532 67.9006C11.1454 67.8437 11.0377 67.7844 10.9311 67.7239C9.21633 66.7598 7.65851 65.5382 6.31172 64.1013C6.27234 64.063 6.23527 64.0223 6.19589 63.9851C6.00824 63.7804 5.82407 63.5735 5.64568 63.3619L5.44877 63.1294C5.23795 62.8701 5.03409 62.6039 4.83601 62.3342C4.80705 62.2947 4.77925 62.2551 4.74914 62.2179C3.94357 61.0969 3.2747 59.883 2.75681 58.6023C2.74059 58.5639 2.72669 58.5221 2.71164 58.486C2.55256 58.0753 2.41163 57.6606 2.28885 57.2421C2.23556 57.0665 2.1846 56.8933 2.14058 56.7108C2.12436 56.6573 2.11046 56.605 2.09772 56.5527C1.43979 53.9752 1.36218 51.2978 1.36218 48.639C1.36218 48.3286 1.36218 48.017 1.36218 47.7089C1.36218 46.6335 1.37492 45.5512 1.39346 44.4699C1.39346 44.1898 1.40504 43.9107 1.41083 43.6294C1.42705 42.9156 1.45022 42.2017 1.48033 41.4879C1.48728 41.2891 1.49655 41.0915 1.50697 40.8938C1.50697 40.7799 1.51277 40.666 1.52435 40.552C1.55215 40.1382 1.57532 39.7278 1.60312 39.3185Z" fill="#0A7342"/>
<path opacity="0.1" d="M25.0049 24.3305V38.821H16.1656V24.3305H17.4259V19.4244H22.599V24.3305H25.0049Z" fill="#0A7342"/>
<path opacity="0.1" d="M25.0048 39.3174H16.1667V55.3994H25.0048V39.3174Z" fill="#0A7342"/>
<path opacity="0.1" d="M16.1656 55.8981H25.0049V69.2678C23.9622 69.5686 22.8997 69.795 21.8252 69.9456L21.5611 69.9782C21.4314 69.9933 21.3028 70.0061 21.1754 70.0189C21.048 70.0317 20.916 70.041 20.7874 70.0491H20.7468C20.6912 70.0491 20.631 70.0561 20.5766 70.0572H20.5175C20.448 70.0572 20.3785 70.0642 20.309 70.0665C20.2105 70.0724 20.1121 70.0735 20.0113 70.0747C19.9684 70.0747 19.9279 70.0747 19.885 70.0747C19.7854 70.0747 19.687 70.0747 19.5874 70.0747H19.3684C19.3094 70.0747 19.2526 70.0747 19.1912 70.0747L18.9676 70.0665C18.8518 70.0665 18.7267 70.0538 18.6062 70.0456L18.3838 70.0293L18.107 70.0038C17.9124 69.9863 17.719 69.9642 17.5278 69.9375L17.2962 69.9049L17.1803 69.8887C16.9869 69.8584 16.7958 69.8259 16.6012 69.7887C16.4587 69.7643 16.3174 69.734 16.1738 69.705L16.1656 55.8981Z" fill="#0A7342"/>
<path opacity="0.1" d="M80.2583 22.6192H72.9701V38.8198H80.2583V22.6192Z" fill="#0A7342"/>
<path opacity="0.1" d="M80.2595 39.3174V55.4005H44.0837V48.4634H63.3525V52.5557H72.9702V39.3174H80.2595Z" fill="#0A7342"/>
<path opacity="0.1" d="M80.3741 73.1416H80.2582V83.692C78.9532 83.5812 77.652 83.4304 76.3547 83.2398C70.5139 82.3815 64.8201 80.714 59.4361 78.2848C57.8816 77.5826 56.3588 76.8161 54.8677 75.9852C52.3768 74.6002 49.9905 73.0339 47.7277 71.2989C47.1594 70.8617 46.5983 70.4145 46.0447 69.9573C45.6613 69.6399 45.2802 69.3143 44.8944 68.9981C44.6269 68.7807 44.357 68.5668 44.0836 68.3622V55.8981H72.8739C72.8542 55.8237 72.8345 55.7493 72.8137 55.6761C72.8357 55.7493 72.8565 55.8237 72.8762 55.8981H80.2582V73.1346C80.2976 73.1358 80.3358 73.1392 80.3741 73.1416Z" fill="#0A7342"/>
<path opacity="0.1" d="M99.2665 21.4125H94.5173V19.9313H96.6463V15.5193C96.8309 15.5867 97.0147 15.6561 97.1977 15.7274V19.9313H99.2665V21.4125Z" fill="#0A7342"/>
<path opacity="0.1" d="M110.709 38.821H87.3937C87.3937 38.821 87.3937 38.821 87.4018 38.8268L87.3914 38.821H83.0662V22.6204H84.2917V34.595H89.8922V27.5032H94.5186V21.91H99.2677V27.5079H103.894V34.5996H110.709V38.821Z" fill="#0A7342"/>
<path opacity="0.1" d="M83.0662 39.3174V55.4005H110.709V39.3174H83.0662ZM118.212 74.332L118.25 61.6018H110.709V55.9051H83.0662V83.8652C85.3324 83.9608 87.6022 83.9336 89.8656 83.7838H89.9049C90.986 83.7156 92.0621 83.6164 93.1332 83.4862H93.1575C98.8716 82.8188 104.459 81.3224 109.745 79.044" fill="#0A7342"/>
<path opacity="0.1" d="M121.547 55.8981H127.995C127.939 59.1638 127.285 62.3714 125.856 65.3337C124.666 67.7949 123.013 69.9468 121.061 71.8267V61.596H121.547V55.8981Z" fill="#0A7342"/>
<path opacity="0.1" d="M127.999 55.4006H121.547V41.9599H125.038C126.845 46.1975 127.993 50.8479 127.999 55.4006Z" fill="#0A7342"/>
<path opacity="0.1" d="M80.2595 27.123H76.3547V32.2024H80.2595V27.123Z" fill="#0A7342"/>
<path opacity="0.1" d="M80.2595 37.6514H76.3547V38.821H80.2595V37.6514Z" fill="#0A7342"/>
<path opacity="0.1" d="M80.2595 39.3174H76.3547V42.7296H80.2595V39.3174Z" fill="#0A7342"/>
<path opacity="0.1" d="M80.2595 48.1797H76.3547V53.2591H80.2595V48.1797Z" fill="#0A7342"/>
<path opacity="0.1" d="M80.2595 58.7081H76.3547V63.7874H80.2595V58.7081Z" fill="#0A7342"/>
<path opacity="0.1" d="M80.2583 73.1346C80.2977 73.1346 80.3359 73.1346 80.3742 73.1416H80.2583V74.3216H76.3547V69.2365H80.2583V73.1346Z" fill="#0A7342"/>
<path opacity="0.1" d="M80.2583 79.7625V83.6862C78.9533 83.5753 77.6521 83.4246 76.3547 83.2339V79.7625H80.2583Z" fill="#0A7342"/>
<path opacity="0.1" d="M60.8181 55.0274H44.0837V55.4006H60.8181V55.0274Z" fill="#0A7342"/>
<path opacity="0.1" d="M60.8181 55.897H44.0837V57.327H60.8181V55.897Z" fill="#0A7342"/>
<path opacity="0.1" d="M60.8181 62.0145H44.0837V64.3141H60.8181V62.0145Z" fill="#0A7342"/>
<path opacity="0.1" d="M60.8169 69.0016V71.3012H47.7277C47.1594 70.8656 46.598 70.4184 46.0435 69.9596C45.6601 69.6422 45.2802 69.3167 44.8933 69.0016H60.8169Z" fill="#0A7342"/>
<path opacity="0.1" d="M60.817 75.9876V78.2848H59.4351C57.8822 77.5819 56.3597 76.8149 54.8678 75.9841L60.817 75.9876Z" fill="#0A7342"/>
<path opacity="0.1" d="M93.161 40.8764H89.8667V44.1828H93.161V40.8764Z" fill="#0A7342"/>
<path opacity="0.1" d="M21.8334 25.471H18.5391V28.7774H21.8334V25.471Z" fill="#0A7342"/>
<path opacity="0.1" d="M21.8334 33.151H18.5391V36.4574H21.8334V33.151Z" fill="#0A7342"/>
<path opacity="0.1" d="M21.8334 40.8311H18.5391V44.1375H21.8334V40.8311Z" fill="#0A7342"/>
<path opacity="0.1" d="M21.8334 48.5099H18.5391V51.8163H21.8334V48.5099Z" fill="#0A7342"/>
<path opacity="0.1" d="M21.8334 56.19H18.5391V59.4963H21.8334V56.19Z" fill="#0A7342"/>
<path opacity="0.1" d="M21.8334 63.87H18.5391V67.1763H21.8334V63.87Z" fill="#0A7342"/>
<path opacity="0.1" d="M105.737 40.8764H102.443V44.1828H105.737V40.8764Z" fill="#0A7342"/>
<path opacity="0.1" d="M93.161 49.0319H89.8667V52.3383H93.161V49.0319Z" fill="#0A7342"/>
<path opacity="0.1" d="M105.737 49.0319H102.443V52.3383H105.737V49.0319Z" fill="#0A7342"/>
<path opacity="0.1" d="M93.161 57.1863H89.8667V60.4927H93.161V57.1863Z" fill="#0A7342"/>
<path opacity="0.1" d="M105.737 57.1863H102.443V60.4927H105.737V57.1863Z" fill="#0A7342"/>
<path opacity="0.1" d="M93.161 65.3418H89.8667V68.6482H93.161V65.3418Z" fill="#0A7342"/>
<path opacity="0.1" d="M105.737 65.3418H102.443V68.6482H105.737V65.3418Z" fill="#0A7342"/>
<path opacity="0.1" d="M93.161 73.4973H89.8667V76.8037H93.161V73.4973Z" fill="#0A7342"/>
<path opacity="0.1" d="M105.737 73.4973H102.443V76.8037H105.737V73.4973Z" fill="#0A7342"/>
<path opacity="0.1" d="M89.8667 83.7839V81.6517H93.1598V83.4804L89.8667 83.7839Z" fill="#0A7342"/>
<path opacity="0.1" d="M2.08496 34.688V36.5795H13.359V34.688H2.08496ZM3.20854 36.4609H2.28883V34.8042H3.21549L3.20854 36.4609ZM4.33096 36.4609H3.4043V34.8042H4.33096V36.4609ZM5.45107 36.4609H4.5244V34.8042H5.45107V36.4609ZM6.57348 36.4609H5.64798V34.8042H6.57464L6.57348 36.4609ZM7.69475 36.4609H6.76808V34.8042H7.69475V36.4609ZM8.81717 36.4609H7.89051V34.8042H8.81717V36.4609ZM9.93959 36.4609H9.01293V34.8042H9.93959V36.4609ZM11.0609 36.4609H10.1342V34.8042H11.0609V36.4609ZM12.1821 36.4609H11.2555V34.8042H12.1821V36.4609ZM13.3034 36.4609H12.3767V34.8042H13.3034V36.4609Z" fill="#0A7342"/>
<path opacity="0.1" d="M2.08496 40.1917V42.0832H13.359V40.1917H2.08496ZM3.20854 41.9634H2.28883V40.3114H3.21549L3.20854 41.9634ZM4.33096 41.9634H3.4043V40.3114H4.33096V41.9634ZM5.45107 41.9634H4.5244V40.3114H5.45107V41.9634ZM6.57348 41.9634H5.64798V40.3114H6.57464L6.57348 41.9634ZM7.69475 41.9634H6.76808V40.3114H7.69475V41.9634ZM8.81717 41.9634H7.89051V40.3114H8.81717V41.9634ZM9.93959 41.9634H9.01293V40.3114H9.93959V41.9634ZM11.0609 41.9634H10.1342V40.3114H11.0609V41.9634ZM12.1821 41.9634H11.2555V40.3114H12.1821V41.9634ZM13.3034 41.9634H12.3767V40.3114H13.3034V41.9634Z" fill="#0A7342"/>
<path opacity="0.1" d="M2.08496 45.6976V47.5926H13.359V45.6976H2.08496ZM3.20854 47.4694H2.28883V45.8162H3.21549L3.20854 47.4694ZM4.33096 47.4694H3.4043V45.8162H4.33096V47.4694ZM5.45107 47.4694H4.5244V45.8162H5.45107V47.4694ZM6.57348 47.4694H5.64798V45.8162H6.57464L6.57348 47.4694ZM7.69475 47.4694H6.76808V45.8162H7.69475V47.4694ZM8.81717 47.4694H7.89051V45.8162H8.81717V47.4694ZM9.93959 47.4694H9.01293V45.8162H9.93959V47.4694ZM11.0609 47.4694H10.1342V45.8162H11.0609V47.4694ZM12.1821 47.4694H11.2555V45.8162H12.1821V47.4694ZM13.3034 47.4694H12.3767V45.8162H13.3034V47.4694Z" fill="#0A7342"/>
<path opacity="0.1" d="M2.08496 51.2036V53.0928H13.359V51.2036H2.08496ZM3.20854 52.9754H2.28883V51.3211H3.21549L3.20854 52.9754ZM4.33096 52.9754H3.4043V51.3211H4.33096V52.9754ZM5.45107 52.9754H4.5244V51.3211H5.45107V52.9754ZM6.57348 52.9754H5.64798V51.3211H6.57464L6.57348 52.9754ZM7.69475 52.9754H6.76808V51.3211H7.69475V52.9754ZM8.81717 52.9754H7.89051V51.3211H8.81717V52.9754ZM9.93959 52.9754H9.01293V51.3211H9.93959V52.9754ZM11.0609 52.9754H10.1342V51.3211H11.0609V52.9754ZM12.1821 52.9754H11.2555V51.3211H12.1821V52.9754ZM13.3034 52.9754H12.3767V51.3211H13.3034V52.9754Z" fill="#0A7342"/>
<path opacity="0.1" d="M2.13367 56.7085C2.17884 56.8863 2.22981 57.0642 2.28309 57.2398V56.827H3.20975V58.4802H2.71399C2.72905 58.5186 2.74411 58.5605 2.75916 58.5965H13.359V56.7085H2.13367ZM4.33449 58.4802H3.40783V56.827H4.33449V58.4802ZM5.4546 58.4802H4.52793V56.827H5.4546V58.4802ZM6.57702 58.4802H5.64804V56.827H6.5747L6.57702 58.4802ZM7.69828 58.4802H6.77162V56.827H7.69828V58.4802ZM8.8207 58.4802H7.89404V56.827H8.8207V58.4802ZM9.94312 58.4802H9.01646V56.827H9.94312V58.4802ZM11.0644 58.4802H10.1377V56.827H11.0644V58.4802ZM12.1856 58.4802H11.259V56.827H12.1856V58.4802ZM13.3069 58.4802H12.3802V56.827H13.3069V58.4802Z" fill="#0A7342"/>
<path opacity="0.1" d="M4.75146 62.2145C4.78042 62.2517 4.80822 62.2935 4.83834 62.3307H5.4511V63.1248C5.51712 63.2038 5.58199 63.2829 5.64917 63.3573V62.3261H6.57583V63.9851H6.20053C6.2376 64.0234 6.27351 64.0641 6.31637 64.1013H13.3625V62.2145H4.75146ZM7.69478 63.9851H6.76812V62.333H7.69478V63.9851ZM8.8172 63.9851H7.89054V62.333H8.8172V63.9851ZM9.93962 63.9851H9.01296V62.333H9.93962V63.9851ZM11.0609 63.9851H10.1342V62.333H11.0609V63.9851ZM12.1821 63.9851H11.2555V62.333H12.1821V63.9851ZM13.3034 63.9851H12.3767V62.333H13.3034V63.9851Z" fill="#0A7342"/>
<path opacity="0.1" d="M10.9358 67.7193C11.0412 67.7797 11.1489 67.8355 11.2578 67.896V67.8379H12.1845V68.361L12.3814 68.4529V67.8379H13.308V68.8435C13.3258 68.8524 13.3444 68.8594 13.3636 68.8644V67.7193H10.9358Z" fill="#0A7342"/>
<path opacity="0.1" d="M87.3936 38.821H87.4006H87.3936ZM80.2583 73.1334H80.3741H80.2583ZM72.8137 55.6749C72.8357 55.7493 72.8543 55.8237 72.8751 55.897C72.8566 55.8237 72.8369 55.7493 72.8137 55.6749ZM87.3936 38.8175H87.4006H87.3936ZM17.4305 21.409V21.9054H22.6048V21.409H17.4305ZM80.2583 73.1334H80.3741H80.2583ZM72.8137 55.6749C72.8357 55.7493 72.8543 55.8237 72.8751 55.897C72.8566 55.8237 72.8369 55.7493 72.8137 55.6749ZM87.3936 38.8175H87.4006H87.3936ZM80.2583 73.1299H80.3741H80.2583ZM72.8137 55.6749C72.8357 55.7493 72.8543 55.8237 72.8751 55.897C72.8566 55.8237 72.8369 55.7493 72.8137 55.6749Z" fill="#0A7342"/>
<path d="M53.4685 44.1398C53.4685 44.1398 53.0121 44.0758 53.0121 43.4085C53.0121 42.7412 52.6855 41.4949 52.6855 41.4949C52.6855 41.4891 52.4029 39.3244 52.0125 38.9802C51.6222 38.6361 51.1206 36.6155 51.1206 36.6155C51.1206 36.6155 51.0349 35.5192 50.86 35.2832C50.6851 35.0472 50.4488 34.4694 50.1001 33.6451C49.7515 32.8209 48.2978 32.25 48.2978 32.25C48.2978 32.25 45.6695 30.7201 44.9247 30.2213C44.857 30.1804 44.7937 30.1324 44.7359 30.0783C44.6062 29.9074 44.0409 29.904 44.0409 29.904C43.9818 29.5296 43.9251 29.0994 43.9065 28.71C43.9065 28.6681 43.9065 28.6263 43.9007 28.5844C44.7312 28.0917 45.3568 27.3148 45.6625 26.3964C45.6765 26.3523 45.688 26.3058 45.7008 26.2616C45.7505 26.2451 45.7963 26.2184 45.8352 26.1832C45.8741 26.148 45.9053 26.105 45.9266 26.057C45.9938 25.907 45.995 25.7314 46.0784 25.5919C46.1757 25.4268 46.361 25.3385 46.507 25.2141C46.8753 24.9002 46.9703 24.3712 46.9529 23.8899C46.9413 23.5004 46.8788 23.1075 46.9031 22.7204L46.9101 22.6227C46.917 22.5646 46.9251 22.5064 46.9356 22.4506C46.9923 22.1623 47.1163 21.8903 47.1858 21.6043C47.2553 21.3183 47.2622 20.9962 47.1 20.7498C46.8626 20.3882 46.368 20.3161 45.9336 20.2789C45.4413 20.2371 45.0011 20.2917 44.6861 19.8813C44.5386 19.6668 44.3727 19.4657 44.1903 19.2803C44.1254 19.2198 43.4953 18.8338 43.4953 18.8083C42.8803 18.5224 42.1832 18.4687 41.5319 18.6571C41.2053 18.7525 40.8972 18.9082 40.5659 18.9861C39.8512 19.1559 39.0288 18.9722 38.4218 19.3826C38.0836 19.6151 37.8809 19.9848 37.6909 20.3452C37.5365 20.642 37.3797 20.9385 37.2206 21.2346C36.9647 21.7217 36.704 22.217 36.5963 22.7564C36.5737 22.8738 36.5597 22.9927 36.5546 23.1121V23.118C36.5546 23.161 36.5546 23.204 36.5546 23.247V23.3016C36.5546 23.3423 36.5546 23.3819 36.5616 23.4179C36.5685 23.4539 36.5673 23.4656 36.5708 23.49C36.5743 23.5144 36.5801 23.569 36.587 23.6062C36.594 23.6434 36.6079 23.7086 36.6218 23.7597C36.6276 23.7818 36.6357 23.8027 36.6426 23.8236C36.6542 23.8632 36.6681 23.9015 36.6832 23.9399C36.6913 23.9597 36.6994 23.9806 36.7087 24.0004C36.726 24.0411 36.7469 24.0806 36.7677 24.1166C36.777 24.1329 36.784 24.148 36.7932 24.1631C36.8255 24.2172 36.8611 24.2692 36.8998 24.3189C37.1477 24.6293 37.5125 24.827 37.7824 25.1176C37.7824 25.1292 37.7824 25.1409 37.7824 25.1513C37.7824 25.1839 37.7824 25.2153 37.7824 25.2478C37.7968 25.896 37.9686 26.5309 38.2832 27.0972C38.5977 27.6635 39.0453 28.1441 39.5871 28.4972C39.5871 28.5414 39.5929 28.5867 39.5952 28.6309C39.6178 28.976 39.6135 29.3224 39.5825 29.6668C39.5353 29.611 39.4763 29.5666 39.4097 29.5368C39.3431 29.5071 39.2708 29.4927 39.1979 29.4947C39.1481 29.4923 39.0983 29.4966 39.0496 29.5075L39.0392 29.4994V29.5098C38.7844 29.5726 38.4705 29.8388 38.1705 30.5957C38.1705 30.5957 37.2577 31.6281 36.5627 31.585C35.8677 31.542 34.1082 32.6593 34.1082 32.6593C34.1082 32.6593 32.3916 33.7777 32.0232 34.917C31.8173 35.5631 31.5705 36.1953 31.2842 36.8097L29.1621 41.1984L28.7706 44.6804C28.7706 44.6804 28.9872 46.2289 28.9444 46.4649C28.9015 46.7009 29.8351 48.8296 29.8351 48.8296C29.8351 48.8296 32.9198 54.2694 34.18 54.5484L34.2704 54.4844C34.3243 54.5127 34.3815 54.5342 34.4407 54.5484L34.7001 54.3647C34.7157 54.5694 34.7091 54.7752 34.6804 54.9785C34.5067 55.5157 34.7453 59.0208 35.0488 59.7079C35.3523 60.395 35.2445 69.4039 35.2445 69.4039L35.2017 70.1991C35.2017 70.1991 35.2017 70.2246 35.2121 70.2688L35.2017 70.4572L35.233 70.4734C35.2654 70.7257 35.2549 70.9816 35.2017 71.2303C35.0928 71.5791 35.0488 72.5649 35.0488 72.5649C35.0488 72.5649 34.1812 78.1314 34.5924 79.2498C35.0036 80.3682 35.3534 81.5936 35.3534 81.5936C35.3534 81.5936 35.7878 82.9886 35.3743 83.227C34.9607 83.4653 33.785 83.8652 34.0271 84.4465C34.2472 84.9836 35.0824 86.4229 35.2063 86.6333L35.1959 86.7438L35.0256 88.5958C35.0532 88.8403 35.1193 89.0789 35.2214 89.3026C35.4079 89.7061 35.7704 90.1246 36.4596 90.0792C36.5755 90.0711 36.7098 90.0572 36.8396 90.0397C38.101 89.87 39.6543 89.305 39.6543 89.305C39.5736 89.2535 39.4997 89.1922 39.4342 89.1224C39.3722 89.0622 39.3231 88.9898 39.2898 88.9099C39.2566 88.8299 39.2399 88.744 39.2408 88.6574C39.2593 88.3203 38.6303 86.7136 38.474 86.3183C38.4496 86.2613 38.4369 86.2288 38.4369 86.2288C38.4369 86.2288 39.8709 84.7244 39.6323 83.3909C39.6323 83.3909 38.0454 82.4608 38.5678 81.9505C39.0902 81.4401 40.0238 79.9741 40.0238 79.9741C40.0238 79.9741 40.0667 74.4925 40.0238 73.674C39.9791 73.106 40.006 72.5345 40.1037 71.9732C40.1211 71.8883 40.142 71.8058 40.164 71.7244C40.8864 71.8326 41.6158 71.8882 42.3463 71.8906C42.6127 71.8906 42.8837 71.8906 43.1571 71.8744C43.1571 71.9519 43.1606 72.0356 43.1675 72.1255C43.2277 73.4834 43.3401 75.8643 43.4316 76.7491C43.5613 78.0174 44.2783 81.4354 44.2783 81.4354C44.2783 81.4354 42.9104 82.3167 44.517 84.4884C44.517 84.4884 44.517 85.2754 44.4104 85.3894C44.2966 85.7618 44.205 86.1407 44.1359 86.5241C44.0687 86.9333 44.0409 87.3472 44.1498 87.5622C44.4104 88.0761 45.9741 88.0343 45.9741 88.0343L46.0124 88.0273C46.3076 87.9967 46.6059 88.0252 46.8901 88.1112C47.1742 88.1972 47.4385 88.339 47.6676 88.5284C48.2618 89.0073 50.5171 88.7969 51.738 88.6446C52.2164 88.5842 52.5361 88.5284 52.5361 88.5284C52.5516 88.474 52.5571 88.4173 52.5523 88.3609C52.5396 88.0598 52.3044 87.3995 50.7105 86.8101C50.7105 86.8101 49.2117 85.7986 49.2325 84.9174H49.2012H49.0275C49.1538 84.9104 49.2348 84.9174 49.2348 84.9174C49.2348 84.9174 48.6476 82.7666 48.8873 82.5922C49.1271 82.4178 48.4089 80.0345 48.4089 80.0345C48.4089 80.0345 47.9977 76.0352 47.9757 75.7551C47.9767 75.5146 48.013 75.2757 48.0835 75.0459L47.9757 72.8533C47.9757 72.8533 47.9549 72.1243 47.9757 71.8871C47.9722 71.6813 47.9556 71.4759 47.9259 71.2721C47.9155 71.1908 47.9051 71.1059 47.8935 71.0222C48.4553 70.8792 48.8202 70.7466 48.8202 70.7466L48.7553 63.1143C49.2325 62.1842 49.3206 60.1439 49.3182 58.6965C49.3182 57.7664 49.2765 57.0782 49.2765 57.0782L49.9287 56.0098C49.9287 56.0098 50.0793 54.7309 49.8406 54.4507C49.7352 54.324 49.7827 54.1926 49.8696 54.0845C49.9147 54.0486 49.9623 54.016 50.0121 53.9869C50.0121 53.9869 50.0051 53.9764 49.997 53.9613C50.0426 53.9231 50.091 53.8885 50.1418 53.8578C50.1418 53.8578 49.9101 53.4974 50.1175 53.3451C50.3121 53.4776 50.4858 53.5776 50.6179 53.659C50.6086 53.7439 50.5993 53.7927 50.5993 53.7927L50.6549 53.6764C50.7824 53.7485 50.86 53.7927 50.86 53.7927C50.86 53.7927 51.8816 51.75 51.8596 51.4489C51.8376 51.1478 52.5546 49.8795 52.5546 49.8795C52.5546 49.8795 52.6415 49.2133 53.033 48.9343C53.4245 48.6553 53.3365 46.6335 53.3365 46.6335C53.3365 46.6335 53.4454 45.5802 53.706 45.1501C53.9666 44.7199 53.4685 44.1398 53.4685 44.1398ZM33.9206 43.2434L33.9403 43.7306C33.8244 43.5434 33.741 43.4085 33.741 43.4085L33.9206 43.2434Z" fill="url(#paint0_linear_7_14)"/>
<path d="M50.9155 52.9103L50.6654 53.9799C50.6654 53.9799 48.6614 52.9533 48.3001 51.6489C47.9387 50.3445 48.9047 49.8492 48.9047 49.8492L50.7719 50.6433L50.9155 52.9103Z" fill="white"/>
<path opacity="0.1" d="M50.9155 52.9103L50.6654 53.9799C50.6654 53.9799 48.6614 52.9533 48.3001 51.6489C47.9387 50.3445 48.9047 49.8492 48.9047 49.8492L50.7719 50.6433L50.9155 52.9103Z" fill="black"/>
<path d="M39.6692 89.3119C39.6692 89.3119 37.8159 89.9955 36.5417 90.0816C35.8652 90.1269 35.5096 89.7107 35.3266 89.3096C35.2266 89.0866 35.1621 88.8493 35.1355 88.6062L35.3011 86.7636L35.3892 85.7823L38.0962 85.0766L38.4796 86.2532L38.5155 86.3427C38.6696 86.7356 39.2869 88.3342 39.2684 88.6679C39.2677 88.7533 39.2841 88.838 39.3167 88.9169C39.3494 88.9958 39.3976 89.0673 39.4584 89.1271C39.5205 89.1974 39.5914 89.2596 39.6692 89.3119Z" fill="white"/>
<path d="M52.3287 88.3749C52.3333 88.4308 52.3279 88.4872 52.3125 88.5411C52.3125 88.5411 48.3487 89.205 47.5379 88.5411C47.3093 88.3472 47.0428 88.2034 46.7555 88.1189C46.4683 88.0344 46.1666 88.0111 45.8699 88.0505C45.8699 88.0505 44.3362 88.0924 44.0802 87.5855C43.9737 87.3727 44.0015 86.96 44.0675 86.5531C44.1349 86.1719 44.2246 85.7949 44.3362 85.4243L44.3976 85.3754L44.7625 85.0813L49.0344 84.9546H49.0669C49.046 85.8312 50.5171 86.8368 50.5171 86.8368C52.0797 87.4181 52.3102 88.0749 52.3287 88.3749Z" fill="white"/>
<path opacity="0.1" d="M52.3287 88.3749C52.3328 88.4309 52.3269 88.4872 52.3113 88.5411C52.3113 88.5411 48.3487 89.205 47.5379 88.5411C47.3094 88.3473 47.0431 88.2036 46.7561 88.1191C46.469 88.0346 46.1676 88.0113 45.871 88.0505C45.871 88.0505 44.3362 88.0924 44.0814 87.5855C43.9748 87.3716 44.0015 86.96 44.0675 86.5531C44.6583 86.6124 45.5907 86.76 45.9567 87.1123C46.5104 87.6483 47.4487 88.183 48.0244 88.2249C48.4749 88.254 51.1704 88.34 52.3287 88.3749Z" fill="black"/>
<path opacity="0.1" d="M39.6693 89.3119C39.6693 89.3119 37.816 89.9955 36.5418 90.0816C35.8653 90.1269 35.5097 89.7107 35.3279 89.3084C35.7993 89.4677 36.4538 89.6351 36.7978 89.4817C37.2055 89.3003 38.6511 89.1829 39.462 89.1329C39.5237 89.2007 39.5933 89.2608 39.6693 89.3119Z" fill="black"/>
<path d="M42.4191 34.2229C40.8901 33.6265 38.9233 31.656 39.4144 30.7352C39.5235 30.5028 39.5883 30.2521 39.6055 29.9958C39.6371 29.6479 39.6418 29.2981 39.6194 28.9495C39.585 28.3785 39.5166 27.8102 39.4144 27.2475C39.4144 27.2475 44.1879 27.3556 43.9099 28.0613C43.8288 28.2682 43.8161 28.6274 43.8381 29.0297C43.8601 29.4319 43.918 29.8865 43.9782 30.2713C44.0616 30.7991 44.145 31.2014 44.145 31.2014C44.145 31.2014 43.8531 31.6118 43.6817 31.6339C43.5103 31.656 44.613 35.0728 42.4191 34.2229Z" fill="#CF6F80"/>
<path opacity="0.1" d="M38.5121 86.3427L38.4762 86.3822C37.0491 84.65 35.3232 86.8089 35.3232 86.8089L35.2977 86.7635L35.3858 85.7823L38.0928 85.0766L38.4762 86.2532L38.5121 86.3427Z" fill="black"/>
<path opacity="0.1" d="M49.068 85.0766C49.068 85.0766 48.0255 85.0545 47.4695 85.5475C46.9135 86.0404 44.2262 85.6544 44.342 85.5475C44.3763 85.4945 44.397 85.4338 44.4022 85.3708L44.7671 85.0766L49.039 84.9499C49.0553 85.0278 49.068 85.0766 49.068 85.0766Z" fill="black"/>
<path d="M40.2879 71.4733C40.2102 71.6659 40.1512 71.8656 40.1118 72.0697C40.0152 72.6284 39.9883 73.197 40.0319 73.7624C40.0747 74.5762 40.0319 80.0299 40.0319 80.0299C40.0319 80.0299 39.1156 81.4843 38.6048 81.997C38.094 82.5096 39.6473 83.4304 39.6473 83.4304C39.879 84.7558 38.4751 86.2532 38.4751 86.2532C37.048 84.5209 35.3221 86.681 35.3221 86.681C35.3221 86.681 34.3839 85.0534 34.1499 84.4721C33.9159 83.8908 35.0661 83.4885 35.4704 83.2525C35.8746 83.0165 35.4507 81.6249 35.4507 81.6249C35.4507 81.6249 35.109 80.4054 34.7036 79.2928C34.2981 78.1802 35.1507 72.6417 35.1507 72.6417C35.1507 72.6417 35.1947 71.6581 35.3001 71.3151C35.3533 71.0677 35.3639 70.8129 35.3314 70.5618C35.3244 70.4769 35.3163 70.406 35.3105 70.3583C35.3047 70.3107 35.3001 70.2886 35.3001 70.2886L35.3163 70.2607L35.8955 69.1772C35.8955 69.1772 40.5659 70.7908 40.2879 71.4733Z" fill="#0A7342"/>
<path d="M49.068 84.9488C49.068 84.9488 48.0255 84.9267 47.4695 85.4138C46.9135 85.9009 44.2262 85.5208 44.3421 85.4138C44.4579 85.3068 44.4486 84.5151 44.4486 84.5151C42.8721 82.355 44.217 81.4785 44.217 81.4785C44.217 81.4785 43.5127 78.0779 43.3853 76.8165C43.2961 75.9353 43.186 73.5671 43.127 72.215C43.1015 71.6337 43.0864 71.2338 43.0864 71.2338L44.3745 70.9733L44.5401 70.9396L47.6468 70.3142C47.6468 70.3142 47.7325 70.8955 47.7904 71.371C47.8193 71.574 47.8355 71.7786 47.839 71.9836C47.8182 72.2161 47.839 72.9439 47.839 72.9439L47.9445 75.1261C47.8756 75.355 47.8401 75.5927 47.839 75.8318C47.8599 76.1096 48.2642 80.088 48.2642 80.088C48.2642 80.088 48.9673 82.462 48.7275 82.6329C48.4877 82.8038 49.068 84.9488 49.068 84.9488Z" fill="#0A7342"/>
<path opacity="0.1" d="M43.91 28.0613C43.8289 28.2682 43.8162 28.6274 43.8382 29.0297C43.1988 29.4161 42.4638 29.6137 41.7176 29.5997C40.9713 29.5857 40.2441 29.3608 39.6196 28.9506C39.5852 28.3793 39.5167 27.8106 39.4146 27.2475C39.4146 27.2475 44.188 27.3532 43.91 28.0613Z" fill="black"/>
<path d="M45.7552 25.492C45.7561 25.9109 45.6904 26.3273 45.5606 26.7255C45.2704 27.6176 44.6753 28.378 43.8805 28.8724C43.0857 29.3667 42.1424 29.5631 41.2173 29.4269C40.2921 29.2907 39.4448 28.8307 38.8249 28.128C38.205 27.4254 37.8526 26.5255 37.8299 25.5873C37.8299 25.5547 37.8299 25.5245 37.8299 25.492C37.8209 24.9639 37.9168 24.4393 38.1119 23.9487C38.3071 23.4582 38.5976 23.0116 38.9665 22.635C39.3354 22.2583 39.7753 21.9592 40.2606 21.755C40.7459 21.5508 41.2669 21.4456 41.7931 21.4456C42.3194 21.4456 42.8403 21.5508 43.3257 21.755C43.811 21.9592 44.2509 22.2583 44.6198 22.635C44.9887 23.0116 45.2792 23.4582 45.4744 23.9487C45.6695 24.4393 45.7654 24.9639 45.7564 25.492H45.7552Z" fill="#CF6F80"/>
<path opacity="0.1" d="M42.4191 34.223C40.8901 33.6266 38.9233 31.656 39.4144 30.7352C39.5235 30.5029 39.5883 30.2521 39.6055 29.9958L41.6986 31.7222L42.9937 32.7883L43.9782 30.2725C44.0616 30.8003 44.145 31.2026 44.145 31.2026C44.145 31.2026 43.8531 31.613 43.6817 31.635C43.5103 31.6571 44.613 35.0728 42.4191 34.223Z" fill="black"/>
<path d="M47.8321 41.853L46.0842 71.3245L43.8046 71.4744L37.9017 54.3856L38.8701 34.0974L39.074 29.8109L41.6987 31.9745L42.9949 33.0406L44.0084 30.4515L45.893 32.1001L47.8321 41.853Z" fill="#0A7342"/>
<path opacity="0.1" d="M40.2879 71.4732C40.2102 71.6659 40.1513 71.8656 40.1118 72.0696C38.4531 71.8126 36.8421 71.3075 35.3325 70.5711L35.3013 70.5548L35.3117 70.3676L35.3175 70.27L35.8967 69.1864C35.8967 69.1864 40.5659 70.7908 40.2879 71.4732Z" fill="black"/>
<path opacity="0.1" d="M44.4011 72.0743C43.9771 72.1467 43.5494 72.1956 43.12 72.2208C43.0945 71.6395 43.0795 71.2396 43.0795 71.2396L44.3675 70.9792L44.4011 72.0743Z" fill="black"/>
<path opacity="0.1" d="M47.7834 71.3768C46.9598 71.5919 45.6879 71.8337 44.5493 71.6825L44.5331 70.9455L47.6397 70.32C47.6397 70.32 47.7254 70.8955 47.7834 71.3768Z" fill="black"/>
<path opacity="0.1" d="M44.5284 71.8174C39.7793 72.6312 35.4297 70.2979 35.4297 70.2979L35.4714 69.5073C35.4714 69.5073 35.5792 60.545 35.2803 59.8579C34.9815 59.1708 34.7486 55.6865 34.9178 55.1518C35.0869 54.617 34.3004 46.5975 34.3004 46.5975L34.173 43.3422L29.5095 41.4461L31.5945 37.0841C31.8761 36.4725 32.1183 35.8434 32.3196 35.2007C32.6822 34.0683 34.3652 32.9557 34.3652 32.9557C34.3652 32.9557 36.0911 31.8443 36.7734 31.8862C37.4557 31.928 38.3499 30.9026 38.3499 30.9026C39.0101 29.2134 39.6078 29.9784 39.6078 29.9784C39.6078 30.0586 39.6078 29.9784 39.5754 30.2283C39.3437 32.0826 43.3214 37.9421 43.3782 38.0455L43.757 47.3067L44.1404 59.0266L44.5284 71.8174Z" fill="black"/>
<path d="M44.401 71.8173C39.6519 72.6312 35.3012 70.2979 35.3012 70.2979L35.3441 69.5073C35.3441 69.5073 35.4518 60.545 35.1518 59.8579C34.8518 59.1708 34.6201 55.6865 34.7904 55.1517C34.9607 54.617 34.173 46.5975 34.173 46.5975L34.0444 43.3422L29.3787 41.4391L31.4637 37.0771C31.7447 36.4652 31.9868 35.8362 32.1888 35.1937C32.5502 34.0613 34.2344 32.9487 34.2344 32.9487C34.2344 32.9487 35.9603 31.8373 36.6414 31.8792C37.3225 31.921 38.2179 30.8956 38.2179 30.8956C38.8793 29.2064 39.6079 29.9714 39.6079 29.9714C39.6079 30.0516 39.5384 30.0876 39.5754 30.2213C40.0851 32.0198 43.1941 37.9351 43.2508 38.0385L43.6342 47.2997L44.0176 59.0196L44.401 71.8173Z" fill="white"/>
<path opacity="0.1" d="M43.1211 38.3025C42.6103 38.0885 39.9044 34.9879 39.9044 34.9879V34.2822C39.806 34.0497 39.221 34.1916 38.7461 34.3543L38.95 30.0679L39.1816 30.2609C39.689 32.0582 43.062 38.199 43.1211 38.3025Z" fill="black"/>
<path d="M43.2497 38.0455C42.7377 37.8316 40.0319 34.731 40.0319 34.731V34.0253C39.9334 33.7928 39.3485 33.9346 38.8735 34.0974L39.0786 29.8109L39.3102 30.0039C39.8187 31.8013 43.1929 37.9432 43.2497 38.0455Z" fill="white"/>
<path opacity="0.1" d="M35.4298 53.509C35.4935 53.509 38.7322 53.1672 38.7322 53.1672C38.7322 53.1672 40.6933 57.0375 40.5647 57.9792C40.4361 58.9209 40.2033 59.7544 39.4145 59.6068C38.6256 59.4591 35.1692 59.723 35.1692 59.723L35.4298 53.509Z" fill="black"/>
<path d="M35.3013 53.2521C35.365 53.2521 38.6037 52.9103 38.6037 52.9103C38.6037 52.9103 40.5636 56.7817 40.4362 57.7222C40.3087 58.6628 40.0736 59.4975 39.2859 59.3499C38.4983 59.2022 35.0406 59.4661 35.0406 59.4661L35.3013 53.2521Z" fill="white"/>
<path d="M37.7418 51.435C37.7418 51.435 40.7141 53.0382 40.7778 53.5276C40.8415 54.0171 39.265 53.3137 38.9244 53.2288C38.7003 53.1746 38.4721 53.1389 38.2422 53.1219L35.9707 53.1835L37.7418 51.435Z" fill="#CF6F80"/>
<path opacity="0.1" d="M42.2918 38.5024C42.4645 38.5024 42.6045 38.3619 42.6045 38.1885C42.6045 38.0152 42.4645 37.8746 42.2918 37.8746C42.119 37.8746 41.979 38.0152 41.979 38.1885C41.979 38.3619 42.119 38.5024 42.2918 38.5024Z" fill="black"/>
<path d="M42.2918 38.3745C42.4645 38.3745 42.6045 38.234 42.6045 38.0606C42.6045 37.8873 42.4645 37.7467 42.2918 37.7467C42.119 37.7467 41.979 37.8873 41.979 38.0606C41.979 38.234 42.119 38.3745 42.2918 38.3745Z" fill="#3F3D56"/>
<path opacity="0.1" d="M42.8674 52.0907C43.0402 52.0907 43.1802 51.9501 43.1802 51.7768C43.1802 51.6034 43.0402 51.4629 42.8674 51.4629C42.6947 51.4629 42.5547 51.6034 42.5547 51.7768C42.5547 51.9501 42.6947 52.0907 42.8674 52.0907Z" fill="black"/>
<path d="M42.8674 51.9616C43.0402 51.9616 43.1802 51.8211 43.1802 51.6477C43.1802 51.4744 43.0402 51.3338 42.8674 51.3338C42.6947 51.3338 42.5547 51.4744 42.5547 51.6477C42.5547 51.8211 42.6947 51.9616 42.8674 51.9616Z" fill="#3F3D56"/>
<path opacity="0.1" d="M42.6034 45.2965C42.7761 45.2965 42.9161 45.156 42.9161 44.9827C42.9161 44.8093 42.7761 44.6688 42.6034 44.6688C42.4307 44.6688 42.2906 44.8093 42.2906 44.9827C42.2906 45.156 42.4307 45.2965 42.6034 45.2965Z" fill="black"/>
<path d="M42.6034 45.1687C42.7761 45.1687 42.9161 45.0281 42.9161 44.8548C42.9161 44.6814 42.7761 44.5409 42.6034 44.5409C42.4307 44.5409 42.2906 44.6814 42.2906 44.8548C42.2906 45.0281 42.4307 45.1687 42.6034 45.1687Z" fill="#3F3D56"/>
<path d="M49.8127 53.0568C49.8127 53.0568 50.0258 53.3777 49.8127 53.5276C49.5996 53.6776 49.8336 54.0403 49.8336 54.0403C49.8336 54.0403 49.3019 54.3531 49.5359 54.6344C49.7699 54.9158 49.6216 56.1865 49.6216 56.1865L48.9822 57.2491C48.9822 57.2491 49.0204 57.9338 49.0227 58.8592C49.0227 60.3032 48.9382 62.333 48.4702 63.2585L48.5351 70.8513C48.5351 70.8513 46.296 71.6721 44.4218 71.4221L44.1439 59.2382C44.1439 59.2382 44.5493 52.329 44.6987 51.0037C44.7861 50.3156 44.8218 49.6219 44.8053 48.9285C44.8053 48.9285 44.7415 46.8544 44.5273 45.8918C44.5273 45.8918 44.2956 41.7216 44.2724 40.5672C44.262 40.0149 44.291 38.4036 44.3234 36.8713C44.3593 35.196 44.3998 33.6161 44.3998 33.6161L43.9771 30.2585C43.9771 30.2585 44.3998 30.2155 44.5273 30.3864C44.5843 30.4399 44.6464 30.4878 44.7126 30.5294C45.4423 31.0247 48.0208 32.5477 48.0208 32.5477C48.0208 32.5477 49.4478 33.1173 49.7895 33.9335C50.1313 34.7496 50.3687 35.3286 50.5344 35.5611C50.7 35.7936 50.7903 36.8864 50.7903 36.8864C50.7903 36.8864 51.2815 38.8977 51.6649 39.2383C52.0483 39.579 52.3286 41.746 52.3286 41.746L48.9405 44.42C48.9405 44.42 48.6428 48.868 48.5791 49.0401C48.5154 49.2121 49.8127 53.0568 49.8127 53.0568Z" fill="white"/>
<path d="M49.9413 53.0568C49.9413 53.0568 50.1533 53.3777 49.9413 53.5276C49.7294 53.6776 49.961 54.0403 49.961 54.0403C49.961 54.0403 49.4328 54.3566 49.6645 54.6379C49.8962 54.9192 49.7502 56.19 49.7502 56.19L49.1108 57.2526C49.1108 57.2526 49.149 57.9373 49.1525 58.8627C49.1525 60.3067 49.068 62.3365 48.6 63.2619L48.6637 70.8548C48.6637 70.8548 46.4212 71.6756 44.5493 71.4256L44.2725 59.2417C44.2725 59.2417 44.6779 52.3325 44.8273 51.0072C44.9149 50.3191 44.9501 49.6254 44.9327 48.9319C44.9327 48.9319 44.869 46.8579 44.6559 45.8953C44.6559 45.8953 44.4242 41.7251 44.3999 40.5707C44.3895 40.0184 44.4196 38.4071 44.4509 36.8748C44.4868 35.1995 44.5273 33.6196 44.5273 33.6196L43.969 30.2167C43.969 30.2167 44.5273 30.2167 44.6559 30.3899C44.7124 30.4441 44.7745 30.492 44.8412 30.5329C45.571 31.0282 48.1506 32.5512 48.1506 32.5512C48.1506 32.5512 49.5765 33.1208 49.9182 33.937C50.2599 34.7531 50.4973 35.3321 50.6641 35.5646C50.8309 35.7971 50.919 36.8899 50.919 36.8899C50.919 36.8899 51.4101 38.9012 51.7935 39.2418C52.1769 39.5825 52.4538 41.7449 52.4538 41.7449L49.0656 44.4188C49.0656 44.4188 48.768 48.8668 48.7031 49.0389C48.6382 49.211 49.9413 53.0568 49.9413 53.0568Z" fill="white"/>
<path opacity="0.1" d="M45.8838 34.6066L46.1896 35.5018L44.5795 37.1294C44.6154 35.4553 44.656 33.8742 44.656 33.8742L44.0977 30.4713C44.0977 30.4713 44.656 30.4713 44.7845 30.6445C44.8409 30.6985 44.9031 30.7461 44.9699 30.7864L46.339 34.7508L45.8838 34.6066Z" fill="black"/>
<path d="M45.7551 34.3497L46.0621 35.2449L44.452 36.8725C44.4879 35.1972 44.5285 33.6172 44.5285 33.6172L43.969 30.2144C43.969 30.2144 44.5285 30.2144 44.6559 30.3876C44.7127 30.4414 44.7748 30.4893 44.8412 30.5306L46.2115 34.4938L45.7551 34.3497Z" fill="white"/>
<path opacity="0.1" d="M45.7552 25.492C45.7561 25.9109 45.6904 26.3273 45.5606 26.7255C45.5387 26.7289 45.5164 26.7279 45.4949 26.7225C45.4734 26.7171 45.4532 26.7074 45.4355 26.6941C45.4054 25.6477 44.8923 24.6654 44.261 23.8295C44.0837 23.5771 43.8689 23.3536 43.6239 23.1668C43.3762 22.9801 43.0682 22.8926 42.7598 22.9215C42.4123 22.9691 42.1053 23.2063 41.7543 23.2365C41.291 23.2749 40.8763 22.9529 40.4165 22.9366C40.2295 22.9384 40.0451 22.9802 39.8755 23.0591C39.7059 23.1381 39.5551 23.2525 39.4331 23.3947C39.1915 23.6815 39.012 24.0156 38.906 24.3759C38.7239 24.9221 38.6247 25.4927 38.6118 26.0686C38.606 26.3941 38.5747 26.8022 38.2736 26.9208C38.2962 26.6814 38.2691 26.4398 38.194 26.2115C38.1188 25.9832 37.9972 25.773 37.8369 25.5943L37.8299 25.5873C37.8299 25.5547 37.8299 25.5245 37.8299 25.492C37.8209 24.9639 37.9168 24.4393 38.1119 23.9487C38.3071 23.4582 38.5976 23.0116 38.9665 22.635C39.3354 22.2583 39.7753 21.9592 40.2606 21.755C40.7459 21.5508 41.2669 21.4456 41.7931 21.4456C42.3194 21.4456 42.8403 21.5508 43.3257 21.755C43.811 21.9592 44.2509 22.2583 44.6198 22.635C44.9887 23.0116 45.2792 23.4582 45.4744 23.9487C45.6695 24.4393 45.7654 24.9639 45.7564 25.492H45.7552Z" fill="black"/>
<path d="M43.4339 19.1756C42.832 18.8915 42.1474 18.8377 41.5087 19.0245C41.1879 19.1198 40.8856 19.2745 40.5601 19.3524C39.8651 19.5209 39.0542 19.3384 38.4577 19.7465C38.1264 19.979 37.9272 20.3464 37.7419 20.7033L37.2785 21.5892C37.026 22.074 36.7712 22.5669 36.6658 23.1005C36.5604 23.6341 36.6241 24.2317 36.9611 24.6607C37.2067 24.9734 37.5693 25.1699 37.8357 25.464C37.9953 25.643 38.1164 25.853 38.1913 26.0811C38.2662 26.3091 38.2934 26.5503 38.2712 26.7894C38.5735 26.6731 38.6025 26.2639 38.6094 25.9384C38.6223 25.3625 38.7215 24.7919 38.9037 24.2457C39.0094 23.8853 39.1889 23.5511 39.4307 23.2644C39.5528 23.1224 39.7037 23.0081 39.8733 22.9291C40.0428 22.8502 40.2272 22.8083 40.4141 22.8064C40.8775 22.8227 41.2933 23.1435 41.752 23.1052C42.0995 23.0761 42.4076 22.8378 42.7574 22.7913C43.0659 22.762 43.3741 22.8495 43.6215 23.0366C43.8664 23.2231 44.081 23.4466 44.2575 23.6992C44.8899 24.5351 45.403 25.5152 45.4332 26.5638C45.564 26.6603 45.7529 26.5348 45.8177 26.386C45.8826 26.2372 45.8849 26.0628 45.9671 25.9209C46.0621 25.757 46.244 25.6698 46.3865 25.5466C46.7479 25.2339 46.8382 24.7072 46.8243 24.2294C46.8104 23.7516 46.7177 23.2668 46.8081 22.7971C46.8625 22.5088 46.9853 22.239 47.0525 21.9542C47.1197 21.6694 47.1278 21.3497 46.9691 21.1044C46.7374 20.744 46.2498 20.673 45.8247 20.6393C45.3416 20.5975 44.9096 20.651 44.6015 20.2429C44.4568 20.0299 44.2941 19.83 44.115 19.6453C44.0536 19.5849 43.4339 19.2012 43.4339 19.1756Z" fill="#512E4E"/>
<path opacity="0.1" d="M30.844 43.6922L29.6335 41.4461L29.2501 44.9117C29.2501 44.9117 29.4633 46.451 29.4204 46.687C29.3775 46.923 30.2938 49.0389 30.2938 49.0389C30.2938 49.0389 33.3205 54.4496 34.5564 54.7286L38.7322 51.7338L37.6248 50.3224C37.6248 50.3224 37.2414 50.1724 37.1453 50.3224C37.1453 50.3224 35.0893 46.7719 34.8761 46.5149C34.663 46.258 34.7047 45.7453 34.7047 45.7453C34.7047 45.7453 34.385 45.4035 34.4916 45.0826C34.5981 44.7618 33.8742 43.6492 33.8742 43.6492L34.5344 43.0295L30.844 43.6922Z" fill="black"/>
<path d="M29.6972 41.1903L29.3775 41.4461L28.9941 44.9117C28.9941 44.9117 29.2073 46.451 29.1644 46.687C29.1216 46.923 30.039 49.0389 30.039 49.0389C30.039 49.0389 33.0645 54.4496 34.3005 54.7286L38.4774 51.7338L37.3689 50.3224C37.3689 50.3224 36.9855 50.1724 36.8893 50.3224C36.8893 50.3224 34.8333 46.7719 34.6202 46.5149C34.407 46.258 34.4499 45.7453 34.4499 45.7453C34.4499 45.7453 34.1302 45.4035 34.2367 45.0826C34.3433 44.7618 33.6182 43.6492 33.6182 43.6492L34.2784 43.0295L29.6972 41.1903Z" fill="white"/>
<path opacity="0.1" d="M49.536 54.7669C49.7676 55.0494 49.6217 56.3178 49.6217 56.3178L48.9823 57.3804C48.9823 57.3804 49.0205 58.0663 49.0228 58.9906L47.9479 59.3277C47.8507 59.3582 47.7478 59.3649 47.6475 59.3473C47.5473 59.3296 47.4527 59.2882 47.3716 59.2264C47.2906 59.1647 47.2254 59.0843 47.1816 58.9921C47.1378 58.8999 47.1165 58.7986 47.1197 58.6965L47.305 52.6964L49.8128 53.659C49.5997 53.8078 49.8337 54.1729 49.8337 54.1729C49.8337 54.1729 49.302 54.4844 49.536 54.7669Z" fill="black"/>
<path d="M49.6645 54.6379C49.8962 54.9204 49.7503 56.19 49.7503 56.19L49.1109 57.2526C49.1109 57.2526 49.1491 57.9373 49.1526 58.8627L48.0579 59.2057C47.9628 59.2354 47.862 59.2418 47.7639 59.2245C47.6657 59.2071 47.5732 59.1665 47.4938 59.106C47.4145 59.0455 47.3508 58.9669 47.3078 58.8766C47.2649 58.7864 47.2441 58.6871 47.2471 58.5872L47.4336 52.5685L49.9425 53.5311C49.7282 53.6799 49.9622 54.0438 49.9622 54.0438C49.9622 54.0438 49.4329 54.3566 49.6645 54.6379Z" fill="white"/>
<path d="M50.4951 51.778C50.4951 51.778 50.3248 52.8696 49.8986 52.9336C49.4723 52.9975 49.2812 54.6995 48.8561 54.6391C48.431 54.5786 48.7124 53.0568 48.7275 52.7615C48.7426 52.4662 48.2642 51.2432 48.6221 50.9653C48.98 50.6874 50.1129 50.9653 50.1129 50.9653L50.4951 51.778Z" fill="#CF6F80"/>
<path opacity="0.1" d="M51.402 43.3713L52.2059 41.7437C52.2059 41.7437 52.5256 42.9842 52.5256 43.6468C52.5256 44.3095 52.9727 44.3746 52.9727 44.3746C52.9727 44.3746 53.4627 44.9559 53.2044 45.3791C52.9461 45.8023 52.8418 46.8556 52.8418 46.8556C52.8418 46.8556 52.9264 48.8657 52.543 49.1435C52.1596 49.4214 52.0797 50.0852 52.0797 50.0852C52.0797 50.0852 51.3754 51.3466 51.3974 51.6466C51.4194 51.9465 50.4175 53.9776 50.4175 53.9776C50.4175 53.9776 50.9074 51.4536 48.0522 50.3631C48.0522 50.3631 48.0302 49.5063 48.2433 49.2714C48.4564 49.0366 48.7889 48.9296 48.5804 47.7426C48.3719 46.5556 48.5201 45.1373 48.5201 44.8524C48.5201 44.5676 49.1595 42.7912 49.1595 42.7912L51.402 43.3713Z" fill="black"/>
<path d="M51.7496 41.5112L52.4515 41.7437C52.4515 41.7437 52.7724 42.9842 52.7724 43.6468C52.7724 44.3095 53.2195 44.3746 53.2195 44.3746C53.2195 44.3746 53.7094 44.9559 53.4511 45.3791C53.1928 45.8023 53.0897 46.8556 53.0897 46.8556C53.0897 46.8556 53.1743 48.8657 52.7909 49.1435C52.4075 49.4214 52.3218 50.0852 52.3218 50.0852C52.3218 50.0852 51.6187 51.3466 51.6407 51.6466C51.6627 51.9465 50.6596 53.9775 50.6596 53.9775C50.6596 53.9775 51.1507 51.4536 48.2943 50.3631C48.2943 50.3631 48.2734 49.5063 48.4865 49.2714C48.6997 49.0366 49.0321 48.9296 48.8236 47.7426C48.6151 46.5556 48.7634 45.1373 48.7634 44.8524C48.7634 44.5676 49.4028 42.7912 49.4028 42.7912L51.7496 41.5112Z" fill="white"/>
<path opacity="0.1" d="M36.2452 83.6978C36.2452 83.6978 37.3642 82.9921 38.0986 83.5048C38.833 84.0175 36.2452 83.6978 36.2452 83.6978Z" fill="black"/>
<path opacity="0.1" d="M44.9397 81.5156C44.9397 81.5156 45.9301 81.3878 46.7617 82.2864C47.5934 83.1851 44.9397 81.5156 44.9397 81.5156Z" fill="black"/>
<g opacity="0.1">
<path opacity="0.1" d="M46.3888 25.292C46.2463 25.4152 46.0633 25.5036 45.9683 25.6675C45.8873 25.8082 45.8849 25.9814 45.8201 26.1325C45.7552 26.2837 45.5664 26.4069 45.4355 26.3116C45.4054 25.2653 44.8911 24.2829 44.2598 23.4458C44.0833 23.1932 43.8688 22.9696 43.6239 22.7831C43.376 22.5961 43.0674 22.5086 42.7586 22.5378C42.4111 22.5855 42.1053 22.8227 41.7543 22.8517C41.291 22.8913 40.8752 22.5692 40.4153 22.5529C40.2284 22.5548 40.0441 22.5968 39.8747 22.676C39.7053 22.7552 39.5547 22.8698 39.4331 23.0122C39.1912 23.2984 39.0117 23.6322 38.906 23.9922C38.724 24.5385 38.6248 25.1091 38.6118 25.6849C38.6048 26.0093 38.5747 26.4139 38.2759 26.5348C38.2828 26.6207 38.2828 26.707 38.2759 26.7929C38.577 26.6766 38.6072 26.2674 38.6141 25.9419C38.627 25.366 38.7262 24.7954 38.9083 24.2492C39.014 23.8888 39.1936 23.5546 39.4354 23.2679C39.5573 23.1259 39.7079 23.0116 39.8773 22.9327C40.0467 22.8537 40.2309 22.8118 40.4176 22.8099C40.881 22.8262 41.298 23.147 41.7567 23.1087C42.1042 23.0796 42.4123 22.8413 42.7609 22.7948C43.0697 22.7655 43.3783 22.853 43.6262 23.0401C43.8711 23.2266 44.0856 23.4501 44.2621 23.7027C44.8934 24.5386 45.4077 25.5187 45.4378 26.5673C45.5687 26.6638 45.7575 26.5383 45.8224 26.3895C45.8873 26.2407 45.8896 26.0663 45.9707 25.9244C46.0656 25.7605 46.2487 25.6733 46.3911 25.5501C46.7525 25.2373 46.8429 24.7107 46.829 24.2329C46.829 24.2178 46.829 24.2027 46.829 24.1887C46.807 24.6026 46.6969 25.0246 46.3888 25.292Z" fill="black"/>
<path opacity="0.1" d="M37.838 25.2094C37.5716 24.9153 37.2079 24.7188 36.9635 24.4073C36.7577 24.1314 36.6401 23.7994 36.6264 23.4551C36.59 23.8854 36.7097 24.3144 36.9635 24.663C37.2079 24.9758 37.5716 25.1722 37.838 25.4664C38.0938 25.7541 38.2474 26.1188 38.2747 26.5034C38.2924 26.2693 38.2629 26.0341 38.1879 25.8117C38.1128 25.5894 37.9938 25.3845 37.838 25.2094Z" fill="black"/>
<path opacity="0.1" d="M47.0548 21.6996C46.9864 21.9844 46.8648 22.2553 46.8092 22.5425C46.7763 22.7344 46.7642 22.9293 46.7733 23.1238C46.7772 23.013 46.7892 22.9026 46.8092 22.7936C46.8648 22.5053 46.9864 22.2356 47.0548 21.9507C47.0946 21.7936 47.1075 21.6309 47.093 21.4694C47.0858 21.547 47.073 21.6239 47.0548 21.6996Z" fill="black"/>
</g>
<path opacity="0.1" d="M15.3745 88.4249C21.608 88.4249 26.6613 87.6103 26.6613 86.6054C26.6613 85.6006 21.608 84.786 15.3745 84.786C9.14102 84.786 4.08777 85.6006 4.08777 86.6054C4.08777 87.6103 9.14102 88.4249 15.3745 88.4249Z" fill="#0A7342"/>
<path d="M15.7382 51.7512H15.012V68.1634H15.7382V51.7512Z" fill="#535461"/>
<path d="M20.302 68.1134L20.2568 68.8528L20.1919 69.8991L20.1653 70.3339L20.1016 71.3802L20.0738 71.815L20.0089 72.8614L19.2769 84.7278C19.2451 85.2384 19.0206 85.7176 18.6492 86.0679C18.2777 86.4183 17.7873 86.6134 17.2776 86.6136H13.4713C12.9618 86.6134 12.4714 86.4182 12.1002 86.0679C11.729 85.7175 11.5047 85.2383 11.4732 84.7278L10.7446 72.8532L10.6798 71.8069L10.6531 71.3721L10.5882 70.3258L10.5616 69.891L10.4967 68.8447L10.4504 68.1053C10.4424 67.9629 10.4634 67.8205 10.5121 67.6866C10.5609 67.5527 10.6364 67.4303 10.734 67.3268C10.8317 67.2232 10.9493 67.1408 11.0798 67.0846C11.2103 67.0283 11.3509 66.9994 11.4929 66.9996H19.278C19.4195 67.0009 19.5592 67.0312 19.6886 67.0887C19.818 67.1462 19.9342 67.2297 20.0302 67.3341C20.1261 67.4385 20.1997 67.5615 20.2465 67.6955C20.2932 67.8295 20.3121 67.9717 20.302 68.1134Z" fill="#3F3D56"/>
<path d="M20.2569 68.8528L20.192 69.8956H10.5571L10.4922 68.8528H20.2569Z" fill="#9D9CB5"/>
<path d="M20.1653 70.3304L20.1016 71.3744H10.6485L10.5836 70.3304H20.1653Z" fill="#9D9CB5"/>
<path d="M20.0739 71.8104L20.0101 72.8532H10.74L10.6752 71.8104H20.0739Z" fill="#9D9CB5"/>
<path d="M9.38363 57.9024C13.6127 60.974 15.378 65.7778 15.378 65.7778C15.378 65.7778 10.2813 65.6022 6.05112 62.5307C1.8209 59.4591 0.059082 54.6565 0.059082 54.6565C0.059082 54.6565 5.15341 54.8309 9.38363 57.9024Z" fill="#0A7342"/>
<path d="M0.055542 54.6565C0.055542 54.6565 5.34679 57.6037 7.04374 60.0439C8.74069 62.4842 15.3779 65.7778 15.3779 65.7778" stroke="#535461" stroke-width="2" stroke-miterlimit="10"/>
<path d="M12.1138 51.7152C14.4154 53.3858 15.3779 56.0005 15.3779 56.0005C15.3779 56.0005 12.6037 55.9051 10.301 54.2345C7.99822 52.5639 7.03796 49.9481 7.03796 49.9481C7.03796 49.9481 9.811 50.0434 12.1138 51.7152Z" fill="#0A7342"/>
<path d="M7.03796 49.9481C7.03796 49.9481 9.91757 51.5524 10.8408 52.8801C11.7639 54.2078 15.3779 56.0005 15.3779 56.0005" stroke="#535461" stroke-width="2" stroke-miterlimit="10"/>
<path d="M18.7197 55.8679C16.0752 58.7848 15.5157 62.597 15.5157 62.597C15.5157 62.597 19.2444 61.6785 21.8866 58.7604C24.5287 55.8423 25.0905 52.0314 25.0905 52.0314C25.0905 52.0314 21.3642 52.951 18.7197 55.8679Z" fill="#0A7342"/>
<path d="M25.0928 52.0325C25.0928 52.0325 21.6479 55.0227 20.7722 57.0828C19.8965 59.1429 15.5157 62.5969 15.5157 62.5969" stroke="#535461" stroke-width="2" stroke-miterlimit="10"/>
<path d="M115.795 54.8414C115.795 54.8414 113.882 45.2919 114.614 44.1037C114.614 44.1037 114.641 42.9993 114.597 41.5914C114.597 41.5379 114.597 41.4844 114.597 41.4298C114.726 41.516 114.86 41.5937 114.999 41.6623C115.673 42.0101 116.448 42.1105 117.188 41.946L116.609 41.2984C116.47 41.1438 116.325 40.9764 116.295 40.7718C116.265 40.5672 116.348 40.3846 116.42 40.2021C116.97 38.807 116.999 37.0527 115.939 35.9877C115.044 35.0926 114.826 33.937 113.854 33.1197C113.144 32.5209 112.754 31.6432 112.386 30.7945C112.074 30.0772 111.76 29.3541 111.582 28.5937C111.443 27.9996 111.387 27.3846 111.196 26.8045C111.005 26.2244 110.647 25.6605 110.088 25.4013C109.888 25.3094 109.667 25.2571 109.485 25.135C109.247 24.9734 109.103 24.7107 108.93 24.4805C108.054 23.3179 105.117 24.0027 103.727 24.4747C103.349 24.5936 102.999 24.7881 102.699 25.0467L102.711 25.0258C102.722 25.0083 102.735 24.9909 102.746 24.9734C102.594 25.0969 102.463 25.2441 102.357 25.4094C102.154 25.7314 102.07 26.107 101.901 26.4557C101.697 26.8684 100.563 28.0206 101.05 28.4844C101.084 28.5156 101.124 28.5407 101.166 28.5588C101.349 28.6353 101.551 28.6555 101.745 28.617L101.724 28.667C101.558 29.0762 101.473 29.5142 101.473 29.9563C101.473 31.8664 103.043 33.415 104.981 33.415C105.345 33.4153 105.707 33.3592 106.054 33.2487C106.062 33.2929 106.069 33.3371 106.077 33.3812C106.077 33.3987 106.083 33.4161 106.086 33.4336L106.024 33.5196C106.021 33.5143 106.018 33.5092 106.014 33.5045L104.195 36.0552C103.917 36.2517 102.316 37.4142 102.226 38.2862C102.131 39.2407 102.036 40.3579 102.036 40.3579L102.023 40.5974C101.944 40.664 101.851 40.7126 101.751 40.7397C101.651 40.7668 101.546 40.7718 101.444 40.7543C100.877 40.6613 100.877 42.847 100.877 42.847C100.877 42.847 100.499 43.1958 100.239 42.8935C99.98 42.5912 99.2943 43.6155 99.2943 43.6155L94.9969 43.8015L94.8984 43.8073L94.6667 43.0876C94.6418 43.0117 94.588 42.9488 94.5171 42.9124C94.4462 42.8761 94.3639 42.8693 94.288 42.8935C94.27 42.8994 94.2526 42.9068 94.2358 42.9156L94.2196 42.9249L94.1895 42.9458L94.1745 42.9598C94.1662 42.9673 94.1584 42.9755 94.1513 42.9842L94.1374 43.0004L94.1304 43.0074C94.1037 43.0445 94.086 43.0874 94.0787 43.1327C94.0715 43.1779 94.0749 43.2242 94.0887 43.2678L94.288 43.8852C93.4586 44.0526 92.6107 44.5246 93.3022 45.8244L89.7971 45.1745L90.9311 46.1301L96.7853 47.3427C96.7077 47.4822 96.7587 47.6845 97.0008 47.9693C98.0433 49.1982 99.9429 49.5318 100.707 49.6179C100.909 50.0712 101.162 50.5001 101.459 50.8967L101.393 52.1209C101.393 52.1209 99.4576 61.4518 99.1031 61.925C99.2821 61.7215 99.4458 61.505 99.5931 61.2774C99.0313 63.1945 98.246 65.8185 98.0398 66.2114C97.7085 66.8392 97.4016 69.3795 97.7792 69.5422C97.895 69.5922 98.2263 69.5678 98.6989 69.5318V69.7422L98.678 77.7163C98.678 77.7163 98.773 82.6073 98.5124 83.0735C98.2518 83.5397 98.1823 84.5174 98.1823 84.5174C98.1823 84.5174 97.1398 86.4462 96.3139 87.2216C96.3083 87.2276 96.3021 87.2331 96.2954 87.2379L96.2699 87.0565C96.2699 87.0565 95.2772 88.3144 93.081 88.2435C93.081 88.2435 91.7593 89.1062 93.7192 89.1527C95.6791 89.1992 98.1823 89.0829 98.1823 89.0829C98.1823 89.0829 99.9302 86.409 101.394 86.7577V88.7841H101.843V86.7252C102.05 86.5878 102.228 86.4095 102.366 86.2011C102.503 85.9927 102.596 85.7584 102.641 85.5126C102.679 85.2592 102.651 85.0002 102.559 84.7611C102.467 84.5219 102.315 84.3109 102.117 84.1489C102.028 84.0683 101.957 83.97 101.908 83.8604C101.858 83.7507 101.832 83.6321 101.831 83.5118L101.815 83.5258C101.815 83.4851 101.804 83.4432 101.8 83.4002C101.671 82.3539 101.51 80.195 102.079 78.5976C102.858 76.4073 103.095 73.3566 102.527 71.5407C102.344 70.9602 102.194 70.3699 102.077 69.7724C102.063 69.6968 102.05 69.6248 102.038 69.5573C102.426 69.61 102.811 69.6877 103.189 69.7898C104.503 70.1537 107.379 70.2212 109.835 70.2014C109.841 70.2688 109.848 70.3397 109.856 70.4107C109.9 70.9036 109.991 71.3911 110.129 71.8662C110.437 72.7963 110.579 76.8967 110.579 76.8967C110.579 76.8967 110.976 80.2682 110.759 81.64C110.644 82.4027 110.528 83.1688 110.462 83.9385V83.9536C110.462 83.9536 109.811 85.8137 109.335 86.824C109.323 86.8496 109.31 86.8752 109.299 86.8996C109.172 86.9112 109.047 86.9389 108.927 86.9821C108.927 86.9821 108.289 88.261 107.653 88.4725C107.017 88.6841 107.228 89.3805 108.667 89.1248C110.107 88.869 112.281 88.6597 112.281 88.6597L112.375 87.3553L112.818 86.7996L112.702 88.1005L113.173 88.0075L113.111 86.4252L113.835 85.5161C113.835 85.5161 114.709 84.7348 113.41 83.1979V83.2316C113.396 83.2095 113.383 83.1863 113.368 83.1642V83.1572C113.153 82.8224 112.981 82.1981 113.295 81.0902C113.863 79.0882 114.193 77.2711 114.193 77.2711C114.193 77.2711 115.46 72.4033 113.937 70.1003H114.004C113.848 69.7762 113.737 69.4318 113.676 69.0772C113.668 69.0353 113.661 68.9923 113.655 68.9481C114.782 68.883 115.888 68.6784 116.791 68.2366C116.787 68.232 116.244 56.6806 115.795 54.8414ZM101.486 46.7847V46.8079L101.254 46.8195L101.486 46.7847ZM100.691 46.8951C100.653 46.9036 100.617 46.9207 100.587 46.9451C100.487 47.0865 100.425 47.2509 100.405 47.4229L100.044 47.3415C100.044 47.3415 99.79 47.2869 99.4252 47.2253L99.2526 47.0509C99.7275 47.0114 100.221 46.9532 100.691 46.8951Z" fill="url(#paint1_linear_7_14)"/>
<path d="M112.649 86.4415L112.511 88.0889L112.973 87.9959L112.904 86.209L112.649 86.4415Z" fill="#1D2366"/>
<path d="M102.104 78.6196C101.547 80.2124 101.705 82.362 101.83 83.406C101.876 83.792 101.919 84.0268 101.919 84.0268C101.919 84.0268 101.086 85.9311 101.017 86.0032C100.947 86.0753 98.5658 87.5343 98.5658 87.5343L96.9012 88.5097C96.9012 88.5097 95.2124 87.7668 96.0221 87.5111C96.1875 87.4444 96.3365 87.3425 96.4588 87.2123C97.2696 86.4392 98.2878 84.5174 98.2878 84.5174C98.2878 84.5174 98.3573 83.542 98.6121 83.0781C98.8669 82.6143 98.7743 77.7396 98.7743 77.7396L98.7939 69.7933V68.7574L101.962 68.7807C101.982 69.1324 102.028 69.4821 102.099 69.827C102.212 70.4224 102.36 71.0109 102.54 71.5895C103.098 73.402 102.867 76.4375 102.104 78.6196Z" fill="#FFB0B1"/>
<path opacity="0.1" d="M101.919 84.0268C101.919 84.0268 101.086 85.9311 101.017 86.0032C100.947 86.0753 98.5658 87.5343 98.5658 87.5343L96.9012 88.5098C96.9012 88.5098 95.2124 87.7669 96.0221 87.5111C96.1875 87.4445 96.3365 87.3425 96.4588 87.2123L96.5306 87.7204L97.0854 87.6971L101.835 83.4083C101.876 83.792 101.919 84.0268 101.919 84.0268Z" fill="black"/>
<path d="M101.861 83.5164L97.0852 87.8343L96.5304 87.8575L96.4146 87.0437C96.4146 87.0437 95.4439 88.297 93.2871 88.2272C93.2871 88.2272 91.9921 89.0864 93.9114 89.1329C95.8308 89.1794 98.2818 89.0631 98.2818 89.0631C98.2818 89.0631 99.9938 86.3892 101.427 86.738V88.7574H101.867V86.7194C102.071 86.5811 102.246 86.4027 102.38 86.1949C102.514 85.9871 102.605 85.7542 102.648 85.5103C102.686 85.259 102.659 85.002 102.569 84.7642C102.48 84.5264 102.331 84.3157 102.137 84.1524C102.05 84.0708 101.981 83.9723 101.933 83.863C101.886 83.7536 101.861 83.6357 101.861 83.5164Z" fill="#1D2366"/>
<path d="M113.089 81.103C112.781 82.2074 112.949 82.8294 113.159 83.1631V83.17C113.43 83.582 113.618 84.0428 113.713 84.5268L113.732 84.6314L111.559 87.8111L110.379 88.2761C110.379 88.2761 108.483 87.6262 108.83 87.4402C108.916 87.3948 109.052 87.153 109.207 86.8194C109.671 85.8137 110.31 83.9583 110.31 83.9583V83.9431C110.377 83.177 110.484 82.4132 110.602 81.6529C110.814 80.2845 110.425 76.9258 110.425 76.9258C110.425 76.9258 110.286 72.8416 109.984 71.9127C109.848 71.4405 109.758 70.9561 109.715 70.4665C109.652 69.8852 109.638 69.4062 109.638 69.4062C109.638 69.4062 110.887 67.6623 113.176 69.5457C113.359 69.6959 113.52 69.8713 113.654 70.0666C115.235 72.3243 113.962 77.2978 113.962 77.2978C113.962 77.2978 113.644 79.1068 113.089 81.103Z" fill="#FFB0B1"/>
<path opacity="0.1" d="M113.735 84.6314L111.562 87.811L110.383 88.2761C110.383 88.2761 108.487 87.6262 108.833 87.4402C108.92 87.3948 109.056 87.153 109.211 86.8194C110.013 86.8124 110.429 87.5797 110.429 87.5797L111.446 87.4169C111.446 87.4169 112.788 84.7709 113.089 84.6093C113.39 84.4477 113.135 83.4014 113.135 83.4014V83.1351C113.143 83.1444 113.15 83.1549 113.16 83.1642V83.1712C113.43 83.5832 113.618 84.0439 113.713 84.5279L113.735 84.6314Z" fill="black"/>
<path d="M110.499 87.6483C110.499 87.6483 109.92 86.581 108.81 86.9751C108.81 86.9751 108.186 88.254 107.561 88.4609C106.937 88.6679 107.145 89.3654 108.556 89.1108C109.967 88.8562 112.094 88.6458 112.094 88.6458L112.187 87.3448L113.621 85.5114C113.621 85.5114 114.475 84.7337 113.204 83.2025V83.4688C113.204 83.4688 113.458 84.5151 113.157 84.6767C112.856 84.8383 111.519 87.4855 111.519 87.4855L110.499 87.6483Z" fill="#1D2366"/>
<path opacity="0.1" d="M101.965 68.7784C101.985 69.1301 102.031 69.4798 102.102 69.8247C100.798 69.6329 99.5874 69.7282 98.7939 69.791V68.7552L101.965 68.7784Z" fill="black"/>
<path opacity="0.1" d="M113.783 70.356C113.783 70.356 111.929 70.4467 109.719 70.4653C109.657 69.884 109.643 69.405 109.643 69.405C109.643 69.405 110.891 67.6611 113.18 69.5445C113.363 69.6948 113.524 69.8701 113.659 70.0654C113.695 70.1645 113.736 70.2615 113.783 70.356Z" fill="black"/>
<path d="M113.783 70.1467C113.783 70.1467 105.665 70.5409 103.191 69.8445C100.717 69.1481 98.2645 69.7515 97.895 69.5899C97.5255 69.4283 97.8255 66.8973 98.1498 66.2707C98.4742 65.6441 100.253 59.3068 100.253 59.3068L101.965 50.348L103.769 49.8492L103.896 49.8132L107.039 48.9436L109.342 48.3053C109.342 48.3053 113.92 66.2474 113.528 67.5705C113.385 68.0771 113.362 68.6101 113.461 69.1272C113.521 69.4803 113.629 69.8234 113.783 70.1467Z" fill="#1D2366"/>
<path d="M95.9977 44.2212C95.9977 44.2212 94.376 45.965 95.6039 46.9369C96.8317 47.9089 97.6391 47.0299 97.6391 47.0299L95.9977 44.2212Z" fill="#C7DAF5"/>
<path opacity="0.1" d="M95.9977 44.2212C95.9977 44.2212 94.376 45.965 95.6039 46.9369C96.8317 47.9089 97.6391 47.0299 97.6391 47.0299L95.9977 44.2212Z" fill="black"/>
<path d="M109.1 32.7558C109.1 32.7558 108.91 32.9371 108.624 33.2045C108.216 33.587 107.612 34.1462 107.077 34.6147C106.336 35.2623 105.724 35.7378 105.943 35.3321C106.162 34.9263 106.12 34.2195 106.011 33.558C106.003 33.5138 105.996 33.4696 105.988 33.4266C105.898 32.9408 105.779 32.4609 105.63 31.9896C105.63 31.9896 106.828 30.4364 107.491 29.8237C107.737 29.5912 107.91 29.4959 107.92 29.6575C107.932 29.8749 108.094 30.355 108.296 30.8643C108.301 30.8805 108.307 30.8956 108.314 30.9119C108.449 31.2607 108.6 31.6188 108.734 31.928C108.937 32.4023 109.1 32.7558 109.1 32.7558Z" fill="#FFB0B1"/>
<path opacity="0.1" d="M108.314 30.9119C108.202 31.5195 107.929 32.0856 107.524 32.5511C107.118 33.0166 106.596 33.3643 106.011 33.5579C105.919 33.0272 105.792 32.5033 105.63 31.9896C105.63 31.9896 107.886 29.0657 107.92 29.6575C107.929 29.8819 108.105 30.3794 108.314 30.9119Z" fill="black"/>
<path opacity="0.1" d="M105.787 34.3392L106.079 33.9265C106.079 33.9265 106.272 35.11 106.983 34.588C107.694 34.066 107.729 38.5164 107.729 38.5164L106.966 49.9713L101.45 49.64L101.606 44.1049L102.231 41.3147L103.775 37.2585L104.693 35.918L105.787 34.3392Z" fill="black"/>
<path d="M107.729 38.5873L107.034 48.9447L106.961 50.0422L103.886 49.8574L103.77 49.8504L101.453 49.7109L101.61 44.1747L102.234 41.3845L103.778 37.3282L104.697 35.9877L105.79 34.4031L106.082 33.9916C106.082 33.9916 106.276 35.1751 106.987 34.6531L107.002 34.6426C107.697 34.2009 107.729 38.5873 107.729 38.5873Z" fill="#1D2366"/>
<path d="M102.312 40.4149C102.312 40.4149 102.035 40.9961 101.479 40.902C100.923 40.8078 100.924 42.9946 100.924 42.9946C100.924 42.9946 100.555 43.3434 100.3 43.0411C100.045 42.7389 99.3731 43.7608 99.3731 43.7608L95.1637 43.9468C95.1637 43.9468 97.0367 44.8059 96.6695 47.4055C96.6695 47.4055 103.029 47.0102 103.237 46.4068C103.446 45.8034 102.312 40.4149 102.312 40.4149Z" fill="white"/>
<path opacity="0.03" d="M102.312 40.4149C102.312 40.4149 102.035 40.9961 101.479 40.902C100.923 40.8078 100.924 42.9946 100.924 42.9946C100.924 42.9946 100.555 43.3434 100.3 43.0411C100.045 42.7389 99.3731 43.7608 99.3731 43.7608L95.1637 43.9468C95.1637 43.9468 97.0367 44.8059 96.6695 47.4055C96.6695 47.4055 103.029 47.0102 103.237 46.4068C103.446 45.8034 102.312 40.4149 102.312 40.4149Z" fill="black"/>
<path d="M90.0786 45.3128L91.1883 46.2638L100.323 48.1902L99.19 47.03L90.0786 45.3128Z" fill="white"/>
<path d="M105.804 34.7054C105.652 34.9379 105.218 36.1284 104.855 37.1678C104.553 38.0339 104.301 38.7954 104.301 38.7954C104.301 38.7954 103.711 42.6482 103.41 43.3446C103.109 44.041 103.272 46.7568 103.272 46.7568L102.15 53.4637C102.15 53.4637 101.641 56.9224 100.856 58.9883C100.081 61.0216 99.2178 61.975 99.1912 62.0052C99.5387 61.5332 101.433 52.2395 101.433 52.2395L102.058 40.5183C102.058 40.5183 102.15 39.4046 102.242 38.4524C102.335 37.5003 104.211 36.2005 104.211 36.2005L106.021 33.6184C106.203 33.8626 106.081 34.2881 105.804 34.7054Z" fill="white"/>
<path d="M101.086 49.769C101.086 49.769 98.422 49.6527 97.1316 48.0972C95.8412 46.5417 100.114 47.4764 100.114 47.4764L101.225 47.7322L101.086 49.769Z" fill="#FFB0B1"/>
<path opacity="0.1" d="M113.528 67.5716C113.385 68.0782 113.362 68.6112 113.461 69.1283C110.554 69.3353 107.445 68.547 107.445 68.547C106.866 69.0818 105.341 69.87 105.341 69.87L104.509 59.5231C103.977 58.128 103.769 50.8188 103.769 50.8188C103.769 50.8188 103.816 50.4363 103.885 49.8632C103.885 49.8492 103.885 49.8341 103.891 49.8201C104.098 48.2193 104.509 45.214 104.711 44.8083C104.989 44.2502 103.856 42.7656 103.856 42.7656L104.371 38.3536L104.434 37.8211C105.52 37.334 106.353 35.7785 106.353 35.7785L106.993 34.6543C107.688 34.2067 107.723 38.5931 107.723 38.5931L107.028 48.9505L109.331 48.3123C109.331 48.3123 113.921 66.2486 113.528 67.5716Z" fill="black"/>
<path d="M116.511 68.2866C113.343 69.8654 107.585 68.4029 107.585 68.4029C107.005 68.9377 105.48 69.7259 105.48 69.7259L104.647 59.3789C104.116 57.9838 103.908 50.6747 103.908 50.6747C103.908 50.6747 104.577 45.221 104.855 44.6641C104.937 44.5013 104.897 44.2595 104.801 43.9991C104.328 42.7596 104.155 41.4255 104.294 40.1056L104.516 38.2095L104.577 37.6782C105.665 37.1899 106.498 35.6343 106.498 35.6343L107.077 34.6159L108.143 32.7395L108.648 31.8513L108.734 31.9292L109.388 32.5244C109.388 32.5244 109.666 32.7569 110.083 33.1057C110.99 33.873 112.557 35.2239 113.366 36.0505C114.077 36.7783 114.302 39.6092 114.367 41.7402C114.409 43.1435 114.384 44.2433 114.384 44.2433C113.667 45.4279 115.542 54.939 115.542 54.939C115.979 56.7771 116.511 68.2866 116.511 68.2866Z" fill="white"/>
<path opacity="0.03" d="M110.429 35.6111C110.429 35.6111 108.255 39.765 108.508 41.3438C108.76 42.9226 109.478 44.7094 109.132 45.1268C109.013 45.2849 108.859 45.4133 108.683 45.5018C108.506 45.5904 108.311 45.6367 108.114 45.6372C107.766 45.6604 106.84 46.3103 106.84 46.3801C106.84 46.4498 105.984 46.4498 105.218 46.7754C104.452 47.1009 103.322 47.2857 103.322 47.2857C103.322 47.2857 101.121 47.216 100.916 47.4252C100.711 47.6345 100.5 48.8866 100.939 49.8853C101.378 50.8839 101.866 51.6291 102.234 51.7652C102.603 51.9012 104.94 51.1153 106.836 50.9293C108.732 50.7433 110.791 49.2354 110.791 49.2354C110.791 49.2354 113.058 48.4216 113.455 47.0532C113.852 45.6848 112.97 38.1641 112.97 38.1641C112.97 38.1641 112.302 34.6589 110.429 35.6111Z" fill="black"/>
<path opacity="0.03" d="M110.151 35.2623C110.151 35.2623 107.977 39.4174 108.232 40.995C108.487 42.5726 109.203 44.3607 108.855 44.7792C108.737 44.9375 108.583 45.066 108.407 45.1546C108.23 45.2431 108.035 45.2894 107.838 45.2896C107.491 45.3128 106.564 45.9627 106.564 46.0325C106.564 46.1022 105.708 46.1022 104.942 46.4266C104.177 46.751 103.046 46.937 103.046 46.937C103.046 46.937 100.845 46.8672 100.641 47.0765C100.438 47.2857 100.224 48.539 100.665 49.5365C101.105 50.534 101.591 51.2804 101.96 51.4164C102.328 51.5524 104.665 50.7665 106.562 50.5817C108.458 50.3968 110.516 48.8866 110.516 48.8866C110.516 48.8866 112.782 48.0728 113.175 46.7056C113.567 45.3384 112.689 37.8153 112.689 37.8153C112.689 37.8153 112.024 34.3113 110.151 35.2623Z" fill="black"/>
<path d="M110.361 35.4018C110.361 35.4018 108.187 39.5569 108.442 41.1345C108.696 42.7121 109.412 44.5002 109.066 44.9175C108.947 45.0762 108.794 45.205 108.617 45.2938C108.44 45.3826 108.245 45.4289 108.048 45.4291C107.7 45.4523 106.774 46.1022 106.774 46.1708C106.774 46.2394 105.919 46.2406 105.152 46.5661C104.385 46.8916 103.256 47.0765 103.256 47.0765C103.256 47.0765 101.055 47.0067 100.85 47.216C100.645 47.4252 100.434 48.6785 100.873 49.676C101.312 50.6735 101.8 51.4199 102.168 51.5559C102.536 51.6919 104.874 50.906 106.77 50.72C108.666 50.534 110.725 49.0261 110.725 49.0261C110.725 49.0261 112.992 48.2123 113.389 46.8439C113.786 45.4756 112.909 37.9548 112.909 37.9548C112.909 37.9548 112.233 34.4555 110.361 35.4018Z" fill="white"/>
<path opacity="0.1" d="M110.313 46.5463C110.313 46.5463 108.576 46.1976 109.181 46.7788C109.785 47.3601 109.782 47.8693 110.522 47.8461C111.262 47.8228 110.313 46.5463 110.313 46.5463Z" fill="black"/>
<path opacity="0.1" d="M113.25 59.0534C113.25 59.0534 112.464 59.587 113.967 60.817C115.469 62.047 113.25 59.0534 113.25 59.0534Z" fill="black"/>
<path opacity="0.1" d="M111.751 63.4398C111.751 63.5096 111.473 65.9975 112.513 66.6195C113.553 67.2415 111.751 63.4398 111.751 63.4398Z" fill="black"/>
<path d="M95.2354 43.941C94.3968 43.97 92.5852 44.227 93.5246 45.986C94.3551 47.5427 95.7509 46.5021 96.5363 45.7128C96.3447 44.9768 95.8791 44.3426 95.2354 43.941Z" fill="#FFB0B1"/>
<path d="M96.5468 45.6988L96.5815 45.6628L96.5468 45.6988Z" fill="#FFB0B1"/>
<path opacity="0.1" d="M110.083 33.1766C109.193 33.787 108.447 34.302 108.301 34.409C107.903 34.7054 107.143 36.4458 106.653 37.334C106.263 38.049 104.994 38.2327 104.516 38.278L104.577 37.7467C105.665 37.2585 106.498 35.7029 106.498 35.7029L108.648 31.9199L109.388 32.5953C109.388 32.5953 109.666 32.8279 110.083 33.1766Z" fill="black"/>
<path d="M110.083 33.1069C109.193 33.7172 108.447 34.2323 108.301 34.3404C107.903 34.6357 107.143 36.3761 106.653 37.2643C106.263 37.9793 104.994 38.1629 104.516 38.2083L104.577 37.677C105.665 37.1887 106.498 35.6332 106.498 35.6332L108.648 31.8501L109.388 32.5233C109.388 32.5233 109.666 32.7535 110.083 33.1069Z" fill="#DCE7FF"/>
<path d="M108.371 30.1446C108.371 30.8425 108.161 31.524 107.766 32.0989C107.301 32.7786 106.608 33.2682 105.813 33.479C105.019 33.6897 104.175 33.6076 103.436 33.2476C102.696 32.8875 102.11 32.2733 101.783 31.5165C101.456 30.7597 101.411 29.9103 101.654 29.1226C101.898 28.3348 102.415 27.6609 103.112 27.223C103.808 26.7851 104.638 26.6123 105.45 26.7359C106.263 26.8596 107.004 27.2715 107.54 27.8969C108.076 28.5223 108.371 29.3197 108.371 30.1446Z" fill="#FFB0B1"/>
<path opacity="0.1" d="M114.366 41.7414C113.896 41.4509 113.513 41.0379 113.258 40.5462C113.065 40.1626 112.936 39.7196 112.606 39.4476C112.308 39.2034 111.911 39.1442 111.54 39.0349C110.322 38.6733 109.3 37.5572 109.262 36.283C109.243 35.6831 109.43 35.0844 109.345 34.4903C109.297 34.1541 109.164 33.8359 108.958 33.5661C108.856 33.437 108.744 33.3162 108.623 33.2045C108.461 33.0511 108.291 32.9022 108.143 32.7395C108.049 32.6387 107.968 32.5275 107.9 32.4082C107.844 32.3105 107.8 32.2072 107.766 32.1001C107.535 31.3886 107.745 30.5445 107.491 29.8249L107.477 29.7854C107.381 29.5296 107.185 29.2738 106.913 29.2541C106.64 29.2343 106.408 29.461 106.148 29.5621C105.605 29.7737 105.019 29.4133 104.566 29.046C104.113 28.6786 103.602 28.2589 103.026 28.3403C102.645 28.3949 102.344 28.6553 101.993 28.7902C101.914 28.821 101.832 28.8447 101.749 28.8611C102.046 28.1176 102.592 27.5012 103.292 27.1177C103.993 26.7342 104.805 26.6076 105.588 26.7596C106.372 26.9116 107.078 27.3328 107.586 27.9507C108.094 28.5686 108.371 29.3448 108.371 30.1458C108.371 30.3876 108.346 30.6289 108.296 30.8654C108.301 30.8817 108.307 30.8968 108.314 30.9131C108.449 31.2618 108.6 31.6199 108.734 31.9292L109.388 32.5244C109.388 32.5244 109.666 32.7569 110.083 33.1057C110.99 33.873 112.557 35.2239 113.366 36.0505C114.077 36.7806 114.299 39.6104 114.366 41.7414Z" fill="black"/>
<path d="M101.953 26.6662C102.118 26.3279 102.201 25.9489 102.399 25.628C102.689 25.1629 103.197 24.8653 103.718 24.6851C105.079 24.2143 107.955 23.5307 108.815 24.6851C108.984 24.9176 109.124 25.1757 109.358 25.3362C109.536 25.4582 109.752 25.5106 109.947 25.6024C110.495 25.8605 110.845 26.4232 111.032 26.9975C111.218 27.5718 111.274 28.188 111.41 28.7797C111.585 29.5389 111.892 30.2585 112.198 30.9735C112.558 31.8176 112.941 32.693 113.636 33.2894C114.584 34.1032 114.794 35.2553 115.674 36.1482C116.717 37.2085 116.683 38.9582 116.146 40.3474C116.075 40.53 115.995 40.7206 116.023 40.9148C116.051 41.1089 116.194 41.2856 116.33 41.4403L116.9 42.0855C115.551 42.4122 114.026 41.7053 113.398 40.4649C113.205 40.0812 113.076 39.6394 112.745 39.3662C112.448 39.1221 112.05 39.064 111.68 38.9547C110.462 38.5919 109.44 37.4747 109.402 36.2005C109.383 35.6018 109.57 35.003 109.485 34.4101C109.438 34.0716 109.305 33.7512 109.097 33.4801C108.779 33.0627 108.298 32.7825 108.039 32.3175C107.6 31.5397 107.933 30.5294 107.617 29.6947C107.52 29.4389 107.325 29.1832 107.053 29.1634C106.781 29.1436 106.548 29.3703 106.287 29.4715C105.745 29.6831 105.159 29.3238 104.706 28.9553C104.253 28.5868 103.742 28.1682 103.165 28.2508C102.784 28.3042 102.484 28.5647 102.133 28.7007C101.874 28.8007 101.348 28.8902 101.121 28.6705C100.641 28.2275 101.752 27.08 101.953 26.6662Z" fill="#591D4B"/>
<path opacity="0.1" d="M113.72 40.0812C113.526 39.6976 113.398 39.2558 113.067 38.9837C112.77 38.7396 112.372 38.6803 112.001 38.571C110.784 38.2094 109.762 37.0922 109.723 35.818C109.704 35.2193 109.891 34.6194 109.807 34.0265C109.759 33.6902 109.625 33.372 109.419 33.1022C109.1 32.6849 108.619 32.4047 108.361 31.9396C107.922 31.163 108.255 30.1528 107.938 29.3169C107.842 29.0622 107.646 28.8065 107.375 28.7856C107.104 28.7646 106.869 28.9937 106.609 29.0948C106.067 29.3064 105.48 28.946 105.028 28.5786C104.576 28.2112 104.063 27.7915 103.487 27.8729C103.106 27.9276 102.805 28.188 102.455 28.3228C102.196 28.4228 101.669 28.5135 101.442 28.2938C100.965 27.8287 102.075 26.6836 102.275 26.272C102.44 25.9326 102.523 25.5547 102.722 25.2339C102.732 25.2164 102.744 25.199 102.755 25.1815C102.606 25.3055 102.478 25.4522 102.374 25.6164C102.176 25.9372 102.094 26.3139 101.928 26.6545C101.728 27.0661 100.617 28.2147 101.095 28.6763C101.327 28.8972 101.848 28.8065 102.108 28.7065C102.455 28.5705 102.759 28.3101 103.14 28.2566C103.719 28.174 104.229 28.5937 104.681 28.9611C105.132 29.3285 105.723 29.6889 106.263 29.4773C106.522 29.3761 106.749 29.1483 107.027 29.1692C107.305 29.1901 107.491 29.4447 107.591 29.7005C107.908 30.5352 107.574 31.5455 108.013 32.3233C108.272 32.7802 108.753 33.0662 109.072 33.4859C109.279 33.757 109.413 34.0775 109.46 34.4159C109.544 35.0089 109.358 35.6076 109.376 36.2063C109.415 37.4852 110.436 38.5978 111.655 38.9605C112.022 39.0698 112.423 39.1279 112.719 39.372C113.052 39.6452 113.183 40.087 113.373 40.4707C114 41.7111 115.526 42.418 116.874 42.0913L116.606 41.7867C115.437 41.8042 114.254 41.1368 113.72 40.0812Z" fill="black"/>
<path opacity="0.1" d="M105.735 34.7752C105.583 35.0077 105.148 36.1982 104.786 37.2375C104.447 37.105 104.138 36.2598 104.138 36.2598L105.948 33.6765C106.133 33.9323 106.011 34.3566 105.735 34.7752Z" fill="black"/>
<path d="M105.804 34.7054C105.652 34.9379 105.218 36.1284 104.855 37.1678C104.516 37.0364 104.208 36.19 104.208 36.19L106.017 33.6079C106.203 33.8625 106.081 34.2881 105.804 34.7054Z" fill="#DCE7FF"/>
<path d="M95.2841 46.5824L94.2809 43.4073C94.2691 43.3702 94.2646 43.331 94.2679 43.2921C94.2711 43.2532 94.282 43.2153 94.2999 43.1807C94.3177 43.146 94.3422 43.1152 94.372 43.0901C94.4017 43.0649 94.4361 43.0459 94.4732 43.0342C94.5479 43.0108 94.6287 43.0179 94.6981 43.0541C94.7676 43.0902 94.8199 43.1524 94.8439 43.2271L95.847 46.3987L95.7474 47.0625L95.2841 46.5824Z" fill="#BE8B87"/>
<path opacity="0.1" d="M94.3761 43.1283C94.4509 43.1046 94.532 43.1116 94.6017 43.1477C94.6714 43.1839 94.724 43.2463 94.7479 43.3213L95.751 46.4929L95.6757 46.9904L95.7487 47.0672L95.8483 46.4033L94.8394 43.2318C94.8155 43.1571 94.7631 43.0949 94.6937 43.0587C94.6242 43.0226 94.5434 43.0154 94.4688 43.0388C94.4059 43.0593 94.3517 43.1002 94.3147 43.1551C94.3344 43.1445 94.3549 43.1355 94.3761 43.1283Z" fill="white"/>
<path d="M95.2842 46.5824L95.8471 46.4033L95.7649 46.9474L95.7475 47.0672L95.583 46.8951L95.2842 46.5824Z" fill="#EFC8C4"/>
<path d="M95.583 46.8951C95.5928 46.8827 95.605 46.8724 95.6189 46.8649C95.6271 46.8597 95.6365 46.857 95.6461 46.857C95.6558 46.857 95.6652 46.8597 95.6734 46.8649C95.6812 46.8744 95.6879 46.885 95.693 46.8963C95.7007 46.9091 95.7111 46.92 95.7236 46.9283C95.736 46.9365 95.7501 46.9419 95.7649 46.9439L95.7475 47.0602L95.583 46.8951Z" fill="#727A9C"/>
<path d="M94.2753 44.5351C94.2753 44.5351 96.2873 44.5234 95.8135 45.3826C95.3398 46.2417 94.5996 46.3452 94.5996 46.3452L94.2753 44.5351Z" fill="#FFB0B1"/>
<path d="M81.7618 5.978H81.6749C78.2185 5.978 75.1617 7.81371 73.4033 10.5225C71.645 7.81371 68.5881 5.978 65.1317 5.978H65.0448C62.4508 6.00281 59.9714 7.05408 58.1454 8.90337C56.3194 10.7527 55.2943 13.2505 55.2928 15.8541C55.2928 19.0873 56.7037 23.6748 59.4547 27.4497C64.6962 34.6426 73.4033 40.9357 73.4033 40.9357C73.4033 40.9357 82.1105 34.6438 87.3508 27.4497C90.1029 23.6748 91.5126 19.0873 91.5126 15.8541C91.5112 13.2507 90.4863 10.753 88.6605 8.90378C86.8347 7.05452 84.3556 6.00311 81.7618 5.978ZM80.5189 28.0031C80.1253 28.0016 79.7413 27.8807 79.4174 27.6562C79.0934 27.4317 78.8447 27.1141 78.7038 26.7452H76.6374C76.5013 26.7444 76.3689 26.7009 76.2586 26.6208C76.1483 26.5408 76.0657 26.4282 76.0223 26.2988L75.3875 24.3794L73.379 31.4234C73.3399 31.559 73.258 31.6782 73.1456 31.7631C73.0332 31.8481 72.8965 31.8941 72.7558 31.8943H72.7153C72.5685 31.8872 72.4286 31.8297 72.319 31.7315C72.2094 31.6334 72.1366 31.5004 72.1129 31.3548L70.043 18.8594L68.5302 26.2534C68.4955 26.3939 68.415 26.5187 68.3014 26.6078C68.1878 26.6969 68.0478 26.7453 67.9036 26.7452H64.9927C64.9054 26.7489 64.8183 26.7349 64.7366 26.7039C64.6549 26.6729 64.5803 26.6257 64.5172 26.5651C64.4542 26.5044 64.404 26.4316 64.3697 26.3509C64.3355 26.2703 64.3178 26.1836 64.3178 26.0959C64.3178 26.0082 64.3355 25.9215 64.3697 25.8409C64.404 25.7602 64.4542 25.6874 64.5172 25.6268C64.5803 25.5661 64.6549 25.5189 64.7366 25.4879C64.8183 25.4569 64.9054 25.4429 64.9927 25.4466H67.3939L69.5368 15.5054C69.572 15.3584 69.6569 15.2282 69.7771 15.1372C69.8974 15.0461 70.0453 14.9997 70.1958 15.0061C70.3463 15.0124 70.4899 15.071 70.6021 15.1718C70.7143 15.2726 70.7881 15.4094 70.811 15.5588L72.9249 28.3054L74.725 22.003C74.7624 21.8703 74.8417 21.7533 74.9509 21.6695C75.0601 21.5857 75.1933 21.5395 75.3308 21.538H75.3435C75.4797 21.538 75.6123 21.5812 75.7225 21.6614C75.8328 21.7416 75.915 21.8546 75.9574 21.9844L77.1053 25.4501H78.6783C78.7902 25.1091 78.9937 24.8057 79.2665 24.5734C79.5393 24.3412 79.8707 24.1891 80.2242 24.1339C80.5777 24.0788 80.9394 24.1227 81.2696 24.2609C81.5997 24.3991 81.8854 24.6261 82.0951 24.917C82.3049 25.2079 82.4304 25.5512 82.458 25.9092C82.4855 26.2671 82.414 26.6258 82.2513 26.9455C82.0886 27.2653 81.8411 27.5337 81.536 27.7211C81.2309 27.9086 80.8801 28.0078 80.5224 28.0078L80.5189 28.0031Z" fill="#0A7342"/>
</g>
<defs>
<linearGradient id="paint0_linear_7_14" x1="41.2748" y1="90.085" x2="41.2748" y2="18.5467" gradientUnits="userSpaceOnUse">
<stop stop-color="#808080" stop-opacity="0.25"/>
<stop offset="0.54" stop-color="#808080" stop-opacity="0.12"/>
<stop offset="1" stop-color="#808080" stop-opacity="0.1"/>
</linearGradient>
<linearGradient id="paint1_linear_7_14" x1="25855.7" y1="53976.6" x2="25855.7" y2="17255.4" gradientUnits="userSpaceOnUse">
<stop stop-color="#808080" stop-opacity="0.25"/>
<stop offset="0.54" stop-color="#808080" stop-opacity="0.12"/>
<stop offset="1" stop-color="#808080" stop-opacity="0.1"/>
</linearGradient>
<clipPath id="clip0_7_14">
<rect width="128" height="91" fill="white"/>
</clipPath>
</defs>
</svg>
